<svg xmlns="http://www.w3.org/2000/svg" fill="none" viewBox="0 0 26 20" height="20" width="26">
<path fill="black" d="M21.5032 6.79511C21.5462 6.81129 21.5892 6.82798 21.6325 6.8434C22.2877 7.077 22.8611 7.44029 23.3387 7.94844C23.7376 8.37292 24.0379 8.86261 24.2521 9.40565C24.5006 10.0359 24.655 10.6892 24.7282 11.3624C24.7717 11.7614 24.774 12.1621 24.7461 12.5605C24.6958 13.2777 24.5263 13.9697 24.2574 14.6363C23.8978 15.5277 23.4005 16.336 22.7788 17.0646C22.2738 17.6564 21.6632 18.109 20.9371 18.3949C20.5988 18.5281 20.2485 18.6141 19.8868 18.6485C19.7113 18.6651 19.5345 18.6677 19.3579 18.674C19.1575 18.6811 18.9568 18.6889 18.7561 18.6899C18.1183 18.6927 17.491 18.6164 16.8821 18.4171C16.2687 18.2164 15.7081 17.914 15.1986 17.5169C14.4111 16.903 13.807 16.134 13.3274 15.2631C12.7774 14.2642 12.4278 13.1953 12.2417 12.0705C12.1771 11.6805 12.1293 11.2888 12.1217 10.8929C12.1177 10.6791 12.1036 10.4652 12.1076 10.2516C12.1162 9.80408 12.1527 9.35888 12.2145 8.91494C12.3436 7.98813 12.5802 7.08812 12.8755 6.20328C13.2017 5.22642 13.6358 4.30062 14.2099 3.44409C14.4959 3.0176 14.8168 2.61891 15.1878 2.26371C15.6234 1.84683 16.105 1.49264 16.6362 1.2062C17.3406 0.826476 18.0909 0.586304 18.8755 0.450039C19.3079 0.374954 19.745 0.345628 20.1831 0.376218C20.8093 0.419955 21.4104 0.568355 21.9811 0.83583C22.4282 1.04516 22.8447 1.30328 23.2154 1.62991C23.691 2.04908 24.0547 2.55242 24.2833 3.1478C24.3761 3.38923 24.4279 3.64179 24.4443 3.90193C24.4961 4.71953 24.1981 5.39985 23.6448 5.98055C23.3508 6.28899 23.0057 6.5193 22.598 6.64975C22.3978 6.71371 22.1923 6.74556 21.9833 6.7577C21.8244 6.7668 21.6657 6.77413 21.5067 6.78222C21.5055 6.78652 21.5042 6.79107 21.503 6.79537L21.5032 6.79511ZM24.1792 11.9823C24.189 11.7242 24.1576 11.395 24.103 11.0681C23.9898 10.3916 23.8065 9.73734 23.476 9.13186C23.2595 8.7352 22.9858 8.38429 22.6418 8.09078C22.089 7.61953 21.4451 7.34094 20.7412 7.1981C20.2721 7.10304 19.8063 7.12933 19.3526 7.29088C18.9885 7.42057 18.663 7.61852 18.3771 7.87943C18.1228 8.11125 17.8824 8.12566 17.6065 7.92417C17.4397 7.80257 17.3213 7.64431 17.2224 7.46507C17.0514 7.15512 16.9478 6.82849 16.9604 6.47152C16.9651 6.335 16.9825 6.19873 17.0001 6.06297C17.0685 5.53105 17.236 5.03327 17.523 4.57972C17.6045 4.45104 17.6872 4.31629 17.7969 4.21365C18.0061 4.01772 18.2619 3.94365 18.5521 3.98056C18.9238 4.02783 19.2012 4.26573 19.2878 4.6318C19.3157 4.74961 19.3401 4.86818 19.3702 4.98523C19.4419 5.26257 19.5674 5.50754 19.8121 5.6701C19.9155 5.73887 20.0282 5.79449 20.1393 5.85036C20.5888 6.07612 21.0664 6.18609 21.5676 6.18938C21.7238 6.19039 21.8802 6.178 22.0362 6.16662C22.259 6.15044 22.471 6.09154 22.6697 5.9889C23.0095 5.81345 23.2833 5.56215 23.4951 5.24437C23.8515 4.70992 23.979 4.133 23.7874 3.50628C23.6161 2.94706 23.2881 2.4872 22.8608 2.09863C22.5125 1.78211 22.1139 1.53966 21.6873 1.34373C21.1964 1.11822 20.6788 0.995607 20.1419 0.957433C19.7601 0.930382 19.3798 0.957433 19.0026 1.02165C18.2689 1.14654 17.5682 1.36952 16.9098 1.72371C16.1312 2.14236 15.4828 2.71271 14.9504 3.41628C14.2849 4.29607 13.8106 5.27774 13.4522 6.31856C13.2024 7.04413 13.0058 7.78437 12.8627 8.53901C12.7618 9.07093 12.7085 9.6079 12.6874 10.1477C12.673 10.5145 12.6914 10.8816 12.7228 11.2481C12.7628 11.7156 12.838 12.176 12.9469 12.6315C13.1735 13.5803 13.5186 14.4811 14.0324 15.3126C14.3996 15.9067 14.8359 16.4424 15.3671 16.8965C15.8118 17.2764 16.3037 17.5763 16.8507 17.7846C17.4636 18.0182 18.1004 18.1042 18.7513 18.1062C18.8957 18.1067 19.0398 18.0951 19.1841 18.0913C19.2767 18.089 19.3692 18.0905 19.4618 18.091C19.7649 18.0925 20.0616 18.0465 20.3534 17.9681C21.1484 17.7545 21.7962 17.3048 22.3289 16.6871C22.8608 16.0703 23.2922 15.3852 23.6221 14.6378C23.9853 13.8157 24.187 12.9584 24.1789 11.9816L24.1792 11.9823ZM20.2721 6.56202C20.0556 6.45711 19.8639 6.36685 19.6743 6.27205C19.2928 6.08143 19.0322 5.77755 18.8869 5.37987C18.8152 5.18394 18.7759 4.97639 18.7173 4.77565C18.702 4.72357 18.6814 4.65885 18.6414 4.63079C18.485 4.52006 18.286 4.51576 18.1681 4.67579C18.0468 4.84012 17.9417 5.01911 17.8497 5.20189C17.6945 5.51007 17.6097 5.84277 17.5672 6.18457C17.5494 6.32792 17.5358 6.4743 17.5441 6.61789C17.5584 6.86565 17.6681 7.08383 17.7976 7.28936C17.8389 7.35484 17.9042 7.4049 17.9596 7.4633C18.6238 6.87728 19.3733 6.55444 20.2721 6.56228V6.56202Z"></path>
<path fill="black" d="M5.3118 16.3986C5.21824 16.4163 5.1365 16.4305 5.05552 16.4472C4.73561 16.5134 4.41193 16.5486 4.08648 16.5288C3.41648 16.4884 2.75302 16.4022 2.11094 16.1941C1.70829 16.0634 1.34185 15.868 1.03854 15.5651C0.733471 15.2602 0.54409 14.8904 0.448268 14.4727C0.346913 14.0316 0.350183 13.5848 0.405513 13.1374C0.501335 12.3612 0.720896 11.6147 0.941211 10.8679C1.22666 9.8996 1.5511 8.94498 1.93791 8.01312C2.15898 7.4807 2.39614 6.95459 2.6396 6.43203C2.9995 5.65969 3.40919 4.9139 3.86214 4.19262C4.14382 3.74413 4.45267 3.31663 4.83621 2.94803C5.45565 2.3524 6.16665 1.92262 7.01169 1.74009C7.74608 1.58133 8.4294 1.71835 9.06947 2.10667C9.60693 2.4328 10.0086 2.8828 10.3086 3.43242C10.5536 3.88091 10.7259 4.35796 10.8732 4.84564C11.0787 5.52646 11.2158 6.22195 11.3101 6.92653C11.3599 7.29842 11.3964 7.67106 11.4047 8.04598C11.4162 8.57082 11.4353 9.09616 11.425 9.621C11.4177 10.0027 11.3735 10.3842 11.3365 10.765C11.286 11.2832 11.1753 11.7919 11.0739 12.3018C11.0551 12.3961 11.047 12.4924 11.0347 12.5812C11.1688 12.6735 11.2998 12.7523 11.4182 12.8474C11.795 13.149 12.0229 13.5464 12.1179 14.0166C12.1911 14.3787 12.2014 14.746 12.1302 15.1108C12.0279 15.6362 11.7444 16.0455 11.3106 16.3483C11.1695 16.4469 11.0111 16.52 10.8627 16.6087C10.7945 16.6497 10.7279 16.6954 10.6678 16.7473C10.6001 16.8057 10.58 16.8881 10.576 16.9763C10.5654 17.2145 10.5372 17.4503 10.4718 17.6801C10.2882 18.3241 9.90823 18.816 9.33355 19.1538C8.95655 19.3752 8.54711 19.489 8.11151 19.5262C7.54085 19.575 6.99082 19.4847 6.45437 19.3014C6.03184 19.1571 5.681 18.9093 5.44459 18.5187C5.28237 18.2507 5.20667 17.9567 5.19208 17.6447C5.17624 17.3037 5.2283 16.969 5.27835 16.6338C5.28941 16.5594 5.29947 16.4848 5.31154 16.3981L5.3118 16.3986ZM6.01323 15.5894C6.01323 15.6207 6.01575 15.6407 6.01298 15.6602C5.96243 15.9987 5.90785 16.337 5.86133 16.676C5.82134 16.9672 5.7655 17.2559 5.77028 17.5532C5.77883 18.1006 6.03033 18.4811 6.52529 18.6992C6.89349 18.8615 7.28533 18.9285 7.68295 18.9556C7.93998 18.973 8.19601 18.9439 8.44751 18.8855C8.84991 18.792 9.19925 18.5966 9.48168 18.297C9.78172 17.979 9.93715 17.5886 9.98041 17.1533C9.99248 17.0332 9.99047 16.9106 10.0126 16.7925C10.0765 16.4507 10.2976 16.2358 10.5943 16.0814C10.7472 16.0017 10.9009 15.9193 11.0392 15.8174C11.3038 15.6228 11.4809 15.3631 11.5495 15.0352C11.6187 14.7053 11.6033 14.3779 11.5244 14.0523C11.4484 13.7393 11.292 13.4766 11.0272 13.2896C10.9193 13.2132 10.8023 13.1495 10.6866 13.0853C10.5201 12.9928 10.4253 12.8588 10.4417 12.6636C10.4537 12.5192 10.4728 12.3751 10.4977 12.2325C10.5659 11.8435 10.6434 11.4562 10.709 11.0666C10.7895 10.5893 10.8426 10.1079 10.8478 9.62403C10.8551 8.9781 10.8589 8.33242 10.8053 7.68699C10.7736 7.30499 10.7306 6.92476 10.668 6.54757C10.5772 6.00225 10.4595 5.4625 10.2918 4.93488C10.1597 4.51926 10.0156 4.10844 9.8021 3.72568C9.58958 3.34494 9.33254 3.00441 8.9729 2.74831C8.64016 2.51142 8.28479 2.33521 7.8766 2.27732C7.53104 2.22853 7.1973 2.28339 6.86708 2.38224C6.11132 2.6085 5.50495 3.06255 4.98434 3.64099C4.72253 3.93197 4.50599 4.25911 4.30076 4.59282C3.89484 5.25292 3.51859 5.92969 3.19164 6.63251C2.94165 7.16974 2.69744 7.71025 2.46833 8.25683C2.12679 9.07189 1.84033 9.90794 1.58229 10.7536C1.38234 11.4094 1.18567 12.0662 1.0559 12.741C0.971894 13.1781 0.917821 13.6169 0.967618 14.0632C1.0061 14.4065 1.10921 14.7253 1.32249 15.0011C1.52494 15.263 1.78827 15.4428 2.09334 15.5621C2.75981 15.8227 3.45949 15.9092 4.16646 15.9466C4.51756 15.9653 4.86287 15.9044 5.20189 15.8174C5.46999 15.7487 5.73482 15.668 6.01248 15.5894H6.01323Z"></path>
<path fill="black" d="M20.621 16.1262C20.0503 16.1621 19.578 15.6294 19.587 15.0694C19.5948 14.5876 19.9703 14.0627 20.621 14.0635C21.2676 14.0642 21.6531 14.5987 21.6488 15.0874C21.6448 15.5465 21.2522 16.1684 20.621 16.1262ZM20.6164 15.5437C20.8747 15.5447 21.0634 15.349 21.0636 15.0793C21.0636 14.8394 20.871 14.6477 20.624 14.6462C20.3292 14.6444 20.1688 14.8924 20.167 15.0783C20.1647 15.2904 20.3561 15.569 20.6164 15.5437Z"></path>
<path fill="black" d="M2.93116 13.3856C2.92965 12.8094 3.42536 12.365 3.97312 12.3647C4.49071 12.3647 4.99095 12.7313 4.99246 13.4096C4.99372 14.0149 4.55258 14.4252 3.97463 14.4345C3.3577 14.4446 2.93292 13.9195 2.93116 13.3853V13.3856ZM4.40545 13.3955C4.41652 13.1528 4.22538 12.9439 3.97111 12.9485C3.74376 12.9525 3.51363 13.132 3.51212 13.3856C3.51061 13.628 3.7508 13.8632 3.98796 13.8488C4.18665 13.8369 4.42583 13.668 4.40571 13.3955H4.40545Z"></path>
</svg>
