<svg xmlns="http://www.w3.org/2000/svg" width="24" height="24" fill="none" class="css-whh5e5"><g fill="#fff" clip-path="url(#inactiveScrap24_svg__a)" filter="url(#inactiveScrap24_svg__b)"><path d="M4.3 4.05V19.5l6.63-3.482a2.3 2.3 0 0 1 2.14 0l6.63 3.481V4.05zM4 2.75h16a1 1 0 0 1 1 1v17.073a.5.5 0 0 1-.732.442l-7.803-4.096a1 1 0 0 0-.93 0l-7.803 4.096A.5.5 0 0 1 3 20.824V3.75a1 1 0 0 1 1-1"></path><path fill-opacity="0.5" d="M4.3 4.05V19.5l6.63-3.482a2.3 2.3 0 0 1 2.14 0l6.63 3.481V4.05z"></path></g><defs><clipPath id="inactiveScrap24_svg__a"><path fill="#fff" d="M0 0h24v24H0z"></path></clipPath><filter id="inactiveScrap24_svg__b" width="28" height="28.573" x="-2" y="-0.25" color-interpolation-filters="sRGB" filterUnits="userSpaceOnUse"><feFlood flood-opacity="0" result="BackgroundImageFix"></feFlood><feColorMatrix in="SourceAlpha" result="hardAlpha" values="0 0 0 0 0 0 0 0 0 0 0 0 0 0 0 0 0 0 127 0"></feColorMatrix><feOffset dy="2"></feOffset><feGaussianBlur stdDeviation="2.5"></feGaussianBlur><feColorMatrix values="0 0 0 0 0.247059 0 0 0 0 0.278431 0 0 0 0 0.301961 0 0 0 0.15 0"></feColorMatrix><feBlend in2="BackgroundImageFix" result="effect1_dropShadow_15409_67579"></feBlend><feBlend in="SourceGraphic" in2="effect1_dropShadow_15409_67579" result="shape"></feBlend></filter></defs></svg>