<svg xmlns="http://www.w3.org/2000/svg" width="71" height="28" fill="none" class="css-40f4ru"><path fill="#2F3438" d="M19.711 7.307h10.226c.759 0 1.374-.606 1.374-1.355s-.615-1.356-1.374-1.356h-8.852v-3.24C21.085.607 20.47 0 19.71 0c-.759 0-1.374.607-1.374 1.356v4.596c0 .749.615 1.355 1.374 1.355Z"></path><path fill="#2F3438" fill-rule="evenodd" d="M13.804 8.877c0 4.711-2.261 7.638-5.9 7.638s-5.901-2.927-5.901-7.638V8.54c0-4.711 2.26-7.638 5.9-7.638s5.9 2.927 5.9 7.638zm-5.9-5.264c-1.178 0-3.153.64-3.153 4.927v.337c0 4.287 1.975 4.927 3.152 4.927s3.153-.64 3.153-4.927V8.54c0-4.287-1.975-4.927-3.153-4.927Z" clip-rule="evenodd"></path><path fill="#2F3438" d="M9.278 23.496h4.655c.76 0 1.374.607 1.374 1.356 0 .748-.615 1.355-1.374 1.355H1.873A1.365 1.365 0 0 1 .5 24.852c0-.75.615-1.356 1.374-1.356H6.53v-4.173c0-.748.615-1.355 1.374-1.355.758 0 1.374.607 1.374 1.355zm22.79-13.84H17.343c-.759 0-1.373.607-1.373 1.355 0 .75.614 1.356 1.373 1.356h14.725c.76 0 1.374-.607 1.374-1.356 0-.748-.615-1.355-1.374-1.355M21.009 24.362c.654.499 2.897 1.475 9.59-.24a1.376 1.376 0 0 1 1.675.97 1.354 1.354 0 0 1-.984 1.653c-2.745.704-5.095 1.055-7.035 1.056-2.15 0-3.797-.432-4.927-1.294-1.103-.843-1.686-2.063-1.686-3.532v-2.163c0-.748.614-1.356 1.373-1.356h9.703v-2.03h-9.703a1.365 1.365 0 0 1-1.373-1.355c0-.749.614-1.356 1.373-1.356h11.077c.759 0 1.373.607 1.373 1.356v4.741c0 .749-.614 1.356-1.373 1.356h-9.703v.807c0 .632.191 1.06.62 1.387M68.135 0a1.41 1.41 0 0 0-1.419 1.4v11.2c0 .773.636 1.4 1.42 1.4a1.41 1.41 0 0 0 1.418-1.4V1.4c0-.773-.635-1.4-1.419-1.4m-6.624 12.39a1.374 1.374 0 0 0 1.759.808 1.35 1.35 0 0 0 .823-1.737c-.045-.12-.944-2.5-3.191-4.195l3.49-3.83c.362-.398.454-.97.233-1.458a1.38 1.38 0 0 0-1.255-.804h-8.56c-.759 0-1.374.607-1.374 1.356 0 .748.615 1.355 1.374 1.355h5.477l-6.499 7.132a1.34 1.34 0 0 0 .103 1.914c.263.233.591.348.919.348.376 0 .75-.152 1.022-.45l3.224-3.538c1.706 1.19 2.437 3.054 2.454 3.1Z"></path><path fill="#2F3438" fill-rule="evenodd" d="M67.072 17.362c0-.749.615-1.356 1.374-1.356s1.374.607 1.374 1.356v6.627c0 1.914-1.579 3.471-3.519 3.471h-6.634c-1.94 0-3.519-1.557-3.519-3.471v-6.627c0-.749.615-1.356 1.374-1.356s1.374.607 1.374 1.356v2.095h8.176zm-7.405 7.387h6.634c.425 0 .771-.34.771-.76v-1.821h-8.176v1.82c0 .42.346.761.771.761m-18.999-8.935c1.664 0 3.052-.87 3.91-2.452.678-1.252 1.037-2.982 1.037-5.004s-.359-3.752-1.038-5.004C43.72 1.772 42.332.902 40.668.902s-3.052.87-3.91 2.452c-.678 1.252-1.037 2.982-1.037 5.004s.359 3.752 1.038 5.004c.857 1.581 2.245 2.452 3.909 2.452m0-12.201c2.093 0 2.2 3.952 2.2 4.745 0 .792-.107 4.745-2.2 4.745s-2.2-3.953-2.2-4.745.106-4.745 2.2-4.745" clip-rule="evenodd"></path><path fill="#2F3438" d="M47.746 1.81c0-.748.615-1.355 1.374-1.355s1.374.607 1.374 1.356V25.73c0 .749-.615 1.355-1.374 1.355a1.365 1.365 0 0 1-1.374-1.355v-4.514c-2.992.733-7.314.95-9.812.95h-2.091a1.365 1.365 0 0 1-1.374-1.355c0-.749.615-1.356 1.374-1.356h2.091c4.378 0 7.991-.493 9.812-1.052z"></path></svg>