<svg width="27" height="20" viewBox="0 0 27 20" fill="none" xmlns="http://www.w3.org/2000/svg">
<path d="M1.5 8.5001C0.671573 8.5001 0 9.17167 0 10.0001C0 10.8285 0.671573 11.5001 1.5 11.5001V8.5001ZM25.5 11.5001C26.3284 11.5001 27 10.8285 27 10.0001C27 9.17167 26.3284 8.5001 25.5 8.5001V11.5001ZM1.5 16.5C0.671573 16.5 0 17.1716 0 18C0 18.8285 0.671573 19.5 1.5 19.5V16.5ZM25.5 19.5C26.3284 19.5 27 18.8285 27 18C27 17.1716 26.3284 16.5 25.5 16.5V19.5ZM1.5 0.5C0.671573 0.5 0 1.17157 0 2C0 2.82843 0.671573 3.5 1.5 3.5V0.5ZM25.5 3.5C26.3284 3.5 27 2.82843 27 2C27 1.17157 26.3284 0.5 25.5 0.5V3.5ZM1.5 10.0001V11.5001H25.5V10.0001V8.5001H1.5V10.0001ZM1.5 18V19.5H25.5V18V16.5H1.5V18ZM1.5 2V3.5H25.5V2V0.5H1.5V2Z" fill="#2F3438"/>
</svg>
