<svg width="30" height="30" viewBox="0 0 30 30" fill="none" xmlns="http://www.w3.org/2000/svg">
<rect width="30" height="30" rx="15" fill="#35C5F0" fill-opacity="0.8"/>
<path d="M8.14258 13.5C7.31415 13.5 6.64258 14.1715 6.64258 15C6.64258 15.8284 7.31415 16.5 8.14258 16.5V13.5ZM14.9997 16.5C15.8281 16.5 16.4997 15.8284 16.4997 15C16.4997 14.1715 15.8281 13.5 14.9997 13.5V16.5ZM15 13.4999C14.1716 13.4999 13.5 14.1715 13.5 14.9999C13.5 15.8284 14.1716 16.4999 15 16.4999V13.4999ZM21.8571 16.4999C22.6856 16.4999 23.3571 15.8284 23.3571 14.9999C23.3571 14.1715 22.6856 13.4999 21.8571 13.4999V16.4999ZM16.5002 15C16.5002 14.1716 15.8286 13.5 15.0002 13.5C14.1717 13.5 13.5002 14.1716 13.5002 15H16.5002ZM13.5002 21.8571C13.5002 22.6856 14.1717 23.3571 15.0002 23.3571C15.8286 23.3571 16.5002 22.6856 16.5002 21.8571H13.5002ZM13.5002 15C13.5002 15.8284 14.1717 16.5 15.0002 16.5C15.8286 16.5 16.5002 15.8284 16.5002 15H13.5002ZM16.5002 8.14282C16.5002 7.3144 15.8286 6.64282 15.0002 6.64282C14.1717 6.64282 13.5002 7.3144 13.5002 8.14282H16.5002ZM8.14258 15V16.5H14.9997V15V13.5H8.14258V15ZM15 14.9999V16.4999H21.8571V14.9999V13.4999H15V14.9999ZM15.0002 15C15.0002 15 13.5002 15 13.5002 15C13.5002 15 13.5002 15 13.5002 15C13.5002 15 13.5002 15 13.5002 15C13.5002 15 13.5002 15 13.5002 15C13.5002 15 13.5002 15 13.5002 15C13.5002 15 13.5002 15 13.5002 15C13.5002 15 13.5002 15 13.5002 15C13.5002 15 13.5002 15 13.5002 15C13.5002 15 13.5002 15 13.5002 15C13.5002 15 13.5002 15 13.5002 15.0001C13.5002 15.0001 13.5002 15.0001 13.5002 15.0001C13.5002 15.0001 13.5002 15.0001 13.5002 15.0001C13.5002 15.0001 13.5002 15.0001 13.5002 15.0001C13.5002 15.0001 13.5002 15.0001 13.5002 15.0001C13.5002 15.0002 13.5002 15.0002 13.5002 15.0002C13.5002 15.0002 13.5002 15.0002 13.5002 15.0002C13.5002 15.0002 13.5002 15.0002 13.5002 15.0003C13.5002 15.0003 13.5002 15.0003 13.5002 15.0003C13.5002 15.0003 13.5002 15.0003 13.5002 15.0004C13.5002 15.0004 13.5002 15.0004 13.5002 15.0004C13.5002 15.0004 13.5002 15.0005 13.5002 15.0005C13.5002 15.0005 13.5002 15.0005 13.5002 15.0005C13.5002 15.0006 13.5002 15.0006 13.5002 15.0006C13.5002 15.0006 13.5002 15.0007 13.5002 15.0007C13.5002 15.0007 13.5002 15.0008 13.5002 15.0008C13.5002 15.0008 13.5002 15.0009 13.5002 15.0009C13.5002 15.0009 13.5002 15.001 13.5002 15.001C13.5002 15.001 13.5002 15.0011 13.5002 15.0011C13.5002 15.0012 13.5002 15.0012 13.5002 15.0012C13.5002 15.0013 13.5002 15.0013 13.5002 15.0014C13.5002 15.0014 13.5002 15.0015 13.5002 15.0015C13.5002 15.0016 13.5002 15.0016 13.5002 15.0017C13.5002 15.0017 13.5002 15.0018 13.5002 15.0018C13.5002 15.0019 13.5002 15.0019 13.5002 15.002C13.5002 15.0021 13.5002 15.0021 13.5002 15.0022C13.5002 15.0023 13.5002 15.0023 13.5002 15.0024C13.5002 15.0024 13.5002 15.0025 13.5002 15.0026C13.5002 15.0027 13.5002 15.0027 13.5002 15.0028C13.5002 15.0029 13.5002 15.003 13.5002 15.003C13.5002 15.0031 13.5002 15.0032 13.5002 15.0033C13.5002 15.0034 13.5002 15.0034 13.5002 15.0035C13.5002 15.0036 13.5002 15.0037 13.5002 15.0038C13.5002 15.0039 13.5002 15.004 13.5002 15.0041C13.5002 15.0042 13.5002 15.0043 13.5002 15.0044C13.5002 15.0045 13.5002 15.0046 13.5002 15.0047C13.5002 15.0048 13.5002 15.0049 13.5002 15.005C13.5002 15.0051 13.5002 15.0052 13.5002 15.0053C13.5002 15.0054 13.5002 15.0055 13.5002 15.0057C13.5002 15.0058 13.5002 15.0059 13.5002 15.006C13.5002 15.0061 13.5002 15.0063 13.5002 15.0064C13.5002 15.0065 13.5002 15.0066 13.5002 15.0068C13.5002 15.0069 13.5002 15.007 13.5002 15.0072C13.5002 15.0073 13.5002 15.0075 13.5002 15.0076C13.5002 15.0077 13.5002 15.0079 13.5002 15.008C13.5002 15.0082 13.5002 15.0083 13.5002 15.0085C13.5002 15.0087 13.5002 15.0088 13.5002 15.009C13.5002 15.0091 13.5002 15.0093 13.5002 15.0095C13.5002 15.0096 13.5002 15.0098 13.5002 15.01C13.5002 15.0101 13.5002 15.0103 13.5002 15.0105C13.5002 15.0107 13.5002 15.0109 13.5002 15.011C13.5002 15.0112 13.5002 15.0114 13.5002 15.0116C13.5002 15.0118 13.5002 15.012 13.5002 15.0122C13.5002 15.0124 13.5002 15.0126 13.5002 15.0128C13.5002 15.013 13.5002 15.0132 13.5002 15.0134C13.5002 15.0136 13.5002 15.0138 13.5002 15.014C13.5002 15.0142 13.5002 15.0145 13.5002 15.0147C13.5002 15.0149 13.5002 15.0151 13.5002 15.0154C13.5002 15.0156 13.5002 15.0158 13.5002 15.0161C13.5002 15.0163 13.5002 15.0165 13.5002 15.0168C13.5002 15.017 13.5002 15.0173 13.5002 15.0175C13.5002 15.0178 13.5002 15.018 13.5002 15.0183C13.5002 15.0185 13.5002 15.0188 13.5002 15.0191C13.5002 15.0193 13.5002 15.0196 13.5002 15.0199C13.5002 15.0201 13.5002 15.0204 13.5002 15.0207C13.5002 15.021 13.5002 15.0213 13.5002 15.0216C13.5002 15.0218 13.5002 15.0221 13.5002 15.0224C13.5002 15.0227 13.5002 15.023 13.5002 15.0233C13.5002 15.0236 13.5002 15.0239 13.5002 15.0242C13.5002 15.0246 13.5002 15.0249 13.5002 15.0252C13.5002 15.0255 13.5002 15.0258 13.5002 15.0262C13.5002 15.0265 13.5002 15.0268 13.5002 15.0272C13.5002 15.0275 13.5002 15.0278 13.5002 15.0282C13.5002 15.0285 13.5002 15.0289 13.5002 15.0292C13.5002 15.0296 13.5002 15.0299 13.5002 15.0303C13.5002 15.0306 13.5002 15.031 13.5002 15.0314C13.5002 15.0317 13.5002 15.0321 13.5002 15.0325C13.5002 15.0329 13.5002 15.0333 13.5002 15.0336C13.5002 15.034 13.5002 15.0344 13.5002 15.0348C13.5002 15.0352 13.5002 15.0356 13.5002 15.036C13.5002 15.0364 13.5002 15.0368 13.5002 15.0372C13.5002 15.0377 13.5002 15.0381 13.5002 15.0385C13.5002 15.0389 13.5002 15.0394 13.5002 15.0398C13.5002 15.0402 13.5002 15.0407 13.5002 15.0411C13.5002 15.0415 13.5002 15.042 13.5002 15.0424C13.5002 15.0429 13.5002 15.0433 13.5002 15.0438C13.5002 15.0443 13.5002 15.0447 13.5002 15.0452C13.5002 15.0457 13.5002 15.0461 13.5002 15.0466C13.5002 15.0471 13.5002 15.0476 13.5002 15.0481C13.5002 15.0486 13.5002 15.0491 13.5002 15.0496C13.5002 15.0501 13.5002 15.0506 13.5002 15.0511C13.5002 15.0516 13.5002 15.0521 13.5002 15.0526C13.5002 15.0532 13.5002 15.0537 13.5002 15.0542C13.5002 15.0547 13.5002 15.0553 13.5002 15.0558C13.5002 15.0564 13.5002 15.0569 13.5002 15.0575C13.5002 15.058 13.5002 15.0586 13.5002 15.0591C13.5002 15.0597 13.5002 15.0603 13.5002 15.0608C13.5002 15.0614 13.5002 15.062 13.5002 15.0626C13.5002 15.0632 13.5002 15.0638 13.5002 15.0644C13.5002 15.065 13.5002 15.0656 13.5002 15.0662C13.5002 15.0668 13.5002 15.0674 13.5002 15.068C13.5002 15.0686 13.5002 15.0692 13.5002 15.0699C13.5002 15.0705 13.5002 15.0711 13.5002 15.0718C13.5002 15.0724 13.5002 15.0731 13.5002 15.0737C13.5002 15.0744 13.5002 15.075 13.5002 15.0757C13.5002 15.0764 13.5002 15.077 13.5002 15.0777C13.5002 15.0784 13.5002 15.0791 13.5002 15.0797C13.5002 15.0804 13.5002 15.0811 13.5002 15.0818C13.5002 15.0825 13.5002 15.0832 13.5002 15.0839C13.5002 15.0847 13.5002 15.0854 13.5002 15.0861C13.5002 15.0868 13.5002 15.0875 13.5002 15.0883C13.5002 15.089 13.5002 15.0898 13.5002 15.0905C13.5002 15.0913 13.5002 15.092 13.5002 15.0928C13.5002 15.0935 13.5002 15.0943 13.5002 15.0951C13.5002 15.0958 13.5002 15.0966 13.5002 15.0974C13.5002 15.0982 13.5002 15.099 13.5002 15.0998C13.5002 15.1006 13.5002 15.1014 13.5002 15.1022C13.5002 15.103 13.5002 15.1038 13.5002 15.1047C13.5002 15.1055 13.5002 15.1063 13.5002 15.1071C13.5002 15.108 13.5002 15.1088 13.5002 15.1097C13.5002 15.1105 13.5002 15.1114 13.5002 15.1122C13.5002 15.1131 13.5002 15.114 13.5002 15.1149C13.5002 15.1157 13.5002 15.1166 13.5002 15.1175C13.5002 15.1184 13.5002 15.1193 13.5002 15.1202C13.5002 15.1211 13.5002 15.122 13.5002 15.1229C13.5002 15.1238 13.5002 15.1248 13.5002 15.1257C13.5002 15.1266 13.5002 15.1276 13.5002 15.1285C13.5002 15.1295 13.5002 15.1304 13.5002 15.1314C13.5002 15.1323 13.5002 15.1333 13.5002 15.1343C13.5002 15.1352 13.5002 15.1362 13.5002 15.1372C13.5002 15.1382 13.5002 15.1392 13.5002 15.1402C13.5002 15.1412 13.5002 15.1422 13.5002 15.1432C13.5002 15.1442 13.5002 15.1453 13.5002 15.1463C13.5002 15.1473 13.5002 15.1484 13.5002 15.1494C13.5002 15.1504 13.5002 15.1515 13.5002 15.1526C13.5002 15.1536 13.5002 15.1547 13.5002 15.1558C13.5002 15.1568 13.5002 15.1579 13.5002 15.159C13.5002 15.1601 13.5002 15.1612 13.5002 15.1623C13.5002 15.1634 13.5002 15.1645 13.5002 15.1656C13.5002 15.1667 13.5002 15.1679 13.5002 15.169C13.5002 15.1701 13.5002 15.1713 13.5002 15.1724C13.5002 15.1736 13.5002 15.1747 13.5002 15.1759C13.5002 15.1771 13.5002 15.1782 13.5002 15.1794C13.5002 15.1806 13.5002 15.1818 13.5002 15.183C13.5002 15.1842 13.5002 15.1854 13.5002 15.1866C13.5002 15.1878 13.5002 15.189 13.5002 15.1903C13.5002 15.1915 13.5002 15.1927 13.5002 15.194C13.5002 15.1952 13.5002 15.1965 13.5002 15.1977C13.5002 15.199 13.5002 15.2002 13.5002 15.2015C13.5002 15.2028 13.5002 15.2041 13.5002 15.2054C13.5002 15.2067 13.5002 15.208 13.5002 15.2093C13.5002 15.2106 13.5002 15.2119 13.5002 15.2132C13.5002 15.2145 13.5002 15.2159 13.5002 15.2172C13.5002 15.2186 13.5002 15.2199 13.5002 15.2213C13.5002 15.2226 13.5002 15.224 13.5002 15.2254C13.5002 15.2267 13.5002 15.2281 13.5002 15.2295C13.5002 15.2309 13.5002 15.2323 13.5002 15.2337C13.5002 15.2351 13.5002 15.2365 13.5002 15.2379C13.5002 15.2394 13.5002 15.2408 13.5002 15.2422C13.5002 15.2437 13.5002 15.2451 13.5002 15.2466C13.5002 15.2481 13.5002 15.2495 13.5002 15.251C13.5002 15.2525 13.5002 15.254 13.5002 15.2555C13.5002 15.257 13.5002 15.2585 13.5002 15.26C13.5002 15.2615 13.5002 15.263 13.5002 15.2645C13.5002 15.2661 13.5002 15.2676 13.5002 15.2691C13.5002 15.2707 13.5002 15.2722 13.5002 15.2738C13.5002 15.2754 13.5002 15.2769 13.5002 15.2785C13.5002 15.2801 13.5002 15.2817 13.5002 15.2833C13.5002 15.2849 13.5002 15.2865 13.5002 15.2881C13.5002 15.2898 13.5002 15.2914 13.5002 15.293C13.5002 15.2947 13.5002 15.2963 13.5002 15.298C13.5002 15.2996 13.5002 15.3013 13.5002 15.3029C13.5002 15.3046 13.5002 15.3063 13.5002 15.308C13.5002 15.3097 13.5002 15.3114 13.5002 15.3131C13.5002 15.3148 13.5002 15.3165 13.5002 15.3183C13.5002 15.32 13.5002 15.3217 13.5002 15.3235C13.5002 15.3252 13.5002 15.327 13.5002 15.3288C13.5002 15.3305 13.5002 15.3323 13.5002 15.3341C13.5002 15.3359 13.5002 15.3377 13.5002 15.3395C13.5002 15.3413 13.5002 15.3431 13.5002 15.3449C13.5002 15.3467 13.5002 15.3486 13.5002 15.3504C13.5002 15.3523 13.5002 15.3541 13.5002 15.356C13.5002 15.3579 13.5002 15.3597 13.5002 15.3616C13.5002 15.3635 13.5002 15.3654 13.5002 15.3673C13.5002 15.3692 13.5002 15.3711 13.5002 15.373C13.5002 15.3749 13.5002 15.3769 13.5002 15.3788C13.5002 15.3808 13.5002 15.3827 13.5002 15.3847C13.5002 15.3866 13.5002 15.3886 13.5002 15.3906C13.5002 15.3926 13.5002 15.3946 13.5002 15.3966C13.5002 15.3986 13.5002 15.4006 13.5002 15.4026C13.5002 15.4046 13.5002 15.4067 13.5002 15.4087C13.5002 15.4108 13.5002 15.4128 13.5002 15.4149C13.5002 15.4169 13.5002 15.419 13.5002 15.4211C13.5002 15.4232 13.5002 15.4253 13.5002 15.4274C13.5002 15.4295 13.5002 15.4316 13.5002 15.4337C13.5002 15.4359 13.5002 15.438 13.5002 15.4401C13.5002 15.4423 13.5002 15.4444 13.5002 15.4466C13.5002 15.4488 13.5002 15.451 13.5002 15.4532C13.5002 15.4553 13.5002 15.4575 13.5002 15.4598C13.5002 15.462 13.5002 15.4642 13.5002 15.4664C13.5002 15.4686 13.5002 15.4709 13.5002 15.4731C13.5002 15.4754 13.5002 15.4777 13.5002 15.4799C13.5002 15.4822 13.5002 15.4845 13.5002 15.4868C13.5002 15.4891 13.5002 15.4914 13.5002 15.4937C13.5002 15.496 13.5002 15.4984 13.5002 15.5007C13.5002 15.503 13.5002 15.5054 13.5002 15.5077C13.5002 15.5101 13.5002 15.5125 13.5002 15.5149C13.5002 15.5173 13.5002 15.5196 13.5002 15.5221C13.5002 15.5245 13.5002 15.5269 13.5002 15.5293C13.5002 15.5317 13.5002 15.5342 13.5002 15.5366C13.5002 15.5391 13.5002 15.5415 13.5002 15.544C13.5002 15.5465 13.5002 15.549 13.5002 15.5515C13.5002 15.554 13.5002 15.5565 13.5002 15.559C13.5002 15.5615 13.5002 15.564 13.5002 15.5666C13.5002 15.5691 13.5002 15.5717 13.5002 15.5742C13.5002 15.5768 13.5002 15.5794 13.5002 15.5819C13.5002 15.5845 13.5002 15.5871 13.5002 15.5897C13.5002 15.5923 13.5002 15.595 13.5002 15.5976C13.5002 15.6002 13.5002 15.6029 13.5002 15.6055C13.5002 15.6082 13.5002 15.6109 13.5002 15.6135C13.5002 15.6162 13.5002 15.6189 13.5002 15.6216C13.5002 15.6243 13.5002 15.627 13.5002 15.6298C13.5002 15.6325 13.5002 15.6352 13.5002 15.638C13.5002 15.6407 13.5002 15.6435 13.5002 15.6463C13.5002 15.649 13.5002 15.6518 13.5002 15.6546C13.5002 15.6574 13.5002 15.6602 13.5002 15.663C13.5002 15.6659 13.5002 15.6687 13.5002 15.6715C13.5002 15.6744 13.5002 15.6772 13.5002 15.6801C13.5002 15.683 13.5002 15.6859 13.5002 15.6888C13.5002 15.6916 13.5002 15.6946 13.5002 15.6975C13.5002 15.7004 13.5002 15.7033 13.5002 15.7063C13.5002 15.7092 13.5002 15.7122 13.5002 15.7151C13.5002 15.7181 13.5002 15.7211 13.5002 15.7241C13.5002 15.7271 13.5002 15.7301 13.5002 15.7331C13.5002 15.7361 13.5002 15.7391 13.5002 15.7422C13.5002 15.7452 13.5002 15.7483 13.5002 15.7513C13.5002 15.7544 13.5002 15.7575 13.5002 15.7606C13.5002 15.7637 13.5002 15.7668 13.5002 15.7699C13.5002 15.773 13.5002 15.7761 13.5002 15.7793C13.5002 15.7824 13.5002 15.7856 13.5002 15.7887C13.5002 15.7919 13.5002 15.7951 13.5002 15.7983C13.5002 15.8015 13.5002 15.8047 13.5002 15.8079C13.5002 15.8111 13.5002 15.8143 13.5002 15.8176C13.5002 15.8208 13.5002 15.8241 13.5002 15.8274C13.5002 15.8306 13.5002 15.8339 13.5002 15.8372C13.5002 15.8405 13.5002 15.8438 13.5002 15.8471C13.5002 15.8505 13.5002 15.8538 13.5002 15.8571C13.5002 15.8605 13.5002 15.8639 13.5002 15.8672C13.5002 15.8706 13.5002 15.874 13.5002 15.8774C13.5002 15.8808 13.5002 15.8842 13.5002 15.8876C13.5002 15.8911 13.5002 15.8945 13.5002 15.898C13.5002 15.9014 13.5002 15.9049 13.5002 15.9084C13.5002 15.9118 13.5002 15.9153 13.5002 15.9188C13.5002 15.9223 13.5002 15.9259 13.5002 15.9294C13.5002 15.9329 13.5002 15.9365 13.5002 15.94C13.5002 15.9436 13.5002 15.9472 13.5002 15.9508C13.5002 15.9543 13.5002 15.9579 13.5002 15.9616C13.5002 15.9652 13.5002 15.9688 13.5002 15.9724C13.5002 15.9761 13.5002 15.9797 13.5002 15.9834C13.5002 15.9871 13.5002 15.9908 13.5002 15.9945C13.5002 15.9982 13.5002 16.0019 13.5002 16.0056C13.5002 16.0093 13.5002 16.0131 13.5002 16.0168C13.5002 16.0206 13.5002 16.0243 13.5002 16.0281C13.5002 16.0319 13.5002 16.0357 13.5002 16.0395C13.5002 16.0433 13.5002 16.0471 13.5002 16.051C13.5002 16.0548 13.5002 16.0586 13.5002 16.0625C13.5002 16.0664 13.5002 16.0702 13.5002 16.0741C13.5002 16.078 13.5002 16.0819 13.5002 16.0859C13.5002 16.0898 13.5002 16.0937 13.5002 16.0977C13.5002 16.1016 13.5002 16.1056 13.5002 16.1095C13.5002 16.1135 13.5002 16.1175 13.5002 16.1215C13.5002 16.1255 13.5002 16.1295 13.5002 16.1336C13.5002 16.1376 13.5002 16.1417 13.5002 16.1457C13.5002 16.1498 13.5002 16.1539 13.5002 16.158C13.5002 16.162 13.5002 16.1662 13.5002 16.1703C13.5002 16.1744 13.5002 16.1785 13.5002 16.1827C13.5002 16.1868 13.5002 16.191 13.5002 16.1952C13.5002 16.1994 13.5002 16.2035 13.5002 16.2078C13.5002 16.212 13.5002 16.2162 13.5002 16.2204C13.5002 16.2247 13.5002 16.2289 13.5002 16.2332C13.5002 16.2374 13.5002 16.2417 13.5002 16.246C13.5002 16.2503 13.5002 16.2546 13.5002 16.259C13.5002 16.2633 13.5002 16.2676 13.5002 16.272C13.5002 16.2763 13.5002 16.2807 13.5002 16.2851C13.5002 16.2895 13.5002 16.2939 13.5002 16.2983C13.5002 16.3027 13.5002 16.3071 13.5002 16.3116C13.5002 16.316 13.5002 16.3205 13.5002 16.325C13.5002 16.3295 13.5002 16.3339 13.5002 16.3385C13.5002 16.343 13.5002 16.3475 13.5002 16.352C13.5002 16.3566 13.5002 16.3611 13.5002 16.3657C13.5002 16.3702 13.5002 16.3748 13.5002 16.3794C13.5002 16.384 13.5002 16.3886 13.5002 16.3933C13.5002 16.3979 13.5002 16.4025 13.5002 16.4072C13.5002 16.4119 13.5002 16.4165 13.5002 16.4212C13.5002 16.4259 13.5002 16.4306 13.5002 16.4353C13.5002 16.4401 13.5002 16.4448 13.5002 16.4495C13.5002 16.4543 13.5002 16.4591 13.5002 16.4639C13.5002 16.4686 13.5002 16.4734 13.5002 16.4783C13.5002 16.4831 13.5002 16.4879 13.5002 16.4927C13.5002 16.4976 13.5002 16.5025 13.5002 16.5073C13.5002 16.5122 13.5002 16.5171 13.5002 16.522C13.5002 16.5269 13.5002 16.5318 13.5002 16.5368C13.5002 16.5417 13.5002 16.5467 13.5002 16.5517C13.5002 16.5566 13.5002 16.5616 13.5002 16.5666C13.5002 16.5716 13.5002 16.5767 13.5002 16.5817C13.5002 16.5867 13.5002 16.5918 13.5002 16.5969C13.5002 16.6019 13.5002 16.607 13.5002 16.6121C13.5002 16.6172 13.5002 16.6223 13.5002 16.6275C13.5002 16.6326 13.5002 16.6377 13.5002 16.6429C13.5002 16.6481 13.5002 16.6533 13.5002 16.6585C13.5002 16.6637 13.5002 16.6689 13.5002 16.6741C13.5002 16.6793 13.5002 16.6846 13.5002 16.6899C13.5002 16.6951 13.5002 16.7004 13.5002 16.7057C13.5002 16.711 13.5002 16.7163 13.5002 16.7216C13.5002 16.727 13.5002 16.7323 13.5002 16.7377C13.5002 16.743 13.5002 16.7484 13.5002 16.7538C13.5002 16.7592 13.5002 16.7646 13.5002 16.7701C13.5002 16.7755 13.5002 16.7809 13.5002 16.7864C13.5002 16.7919 13.5002 16.7973 13.5002 16.8028C13.5002 16.8083 13.5002 16.8138 13.5002 16.8194C13.5002 16.8249 13.5002 16.8304 13.5002 16.836C13.5002 16.8416 13.5002 16.8472 13.5002 16.8528C13.5002 16.8583 13.5002 16.864 13.5002 16.8696C13.5002 16.8752 13.5002 16.8809 13.5002 16.8865C13.5002 16.8922 13.5002 16.8979 13.5002 16.9036C13.5002 16.9093 13.5002 16.915 13.5002 16.9207C13.5002 16.9265 13.5002 16.9322 13.5002 16.938C13.5002 16.9438 13.5002 16.9495 13.5002 16.9553C13.5002 16.9611 13.5002 16.967 13.5002 16.9728C13.5002 16.9786 13.5002 16.9845 13.5002 16.9904C13.5002 16.9962 13.5002 17.0021 13.5002 17.008C13.5002 17.0139 13.5002 17.0199 13.5002 17.0258C13.5002 17.0317 13.5002 17.0377 13.5002 17.0437C13.5002 17.0496 13.5002 17.0556 13.5002 17.0617C13.5002 17.0677 13.5002 17.0737 13.5002 17.0797C13.5002 17.0858 13.5002 17.0918 13.5002 17.0979C13.5002 17.104 13.5002 17.1101 13.5002 17.1162C13.5002 17.1223 13.5002 17.1285 13.5002 17.1346C13.5002 17.1408 13.5002 17.1469 13.5002 17.1531C13.5002 17.1593 13.5002 17.1655 13.5002 17.1717C13.5002 17.178 13.5002 17.1842 13.5002 17.1905C13.5002 17.1967 13.5002 17.203 13.5002 17.2093C13.5002 17.2156 13.5002 17.2219 13.5002 17.2282C13.5002 17.2346 13.5002 17.2409 13.5002 17.2473C13.5002 17.2536 13.5002 17.26 13.5002 17.2664C13.5002 17.2728 13.5002 17.2793 13.5002 17.2857C13.5002 17.2921 13.5002 17.2986 13.5002 17.3051C13.5002 17.3115 13.5002 17.318 13.5002 17.3245C13.5002 17.3311 13.5002 17.3376 13.5002 17.3441C13.5002 17.3507 13.5002 17.3572 13.5002 17.3638C13.5002 17.3704 13.5002 17.377 13.5002 17.3836C13.5002 17.3903 13.5002 17.3969 13.5002 17.4036C13.5002 17.4102 13.5002 17.4169 13.5002 17.4236C13.5002 17.4303 13.5002 17.437 13.5002 17.4437C13.5002 17.4505 13.5002 17.4572 13.5002 17.464C13.5002 17.4708 13.5002 17.4775 13.5002 17.4843C13.5002 17.4912 13.5002 17.498 13.5002 17.5048C13.5002 17.5117 13.5002 17.5185 13.5002 17.5254C13.5002 17.5323 13.5002 17.5392 13.5002 17.5461C13.5002 17.553 13.5002 17.56 13.5002 17.5669C13.5002 17.5739 13.5002 17.5809 13.5002 17.5878C13.5002 17.5948 13.5002 17.6019 13.5002 17.6089C13.5002 17.6159 13.5002 17.623 13.5002 17.63C13.5002 17.6371 13.5002 17.6442 13.5002 17.6513C13.5002 17.6584 13.5002 17.6655 13.5002 17.6727C13.5002 17.6798 13.5002 17.687 13.5002 17.6942C13.5002 17.7014 13.5002 17.7086 13.5002 17.7158C13.5002 17.723 13.5002 17.7303 13.5002 17.7375C13.5002 17.7448 13.5002 17.7521 13.5002 17.7594C13.5002 17.7667 13.5002 17.774 13.5002 17.7813C13.5002 17.7887 13.5002 17.796 13.5002 17.8034C13.5002 17.8108 13.5002 17.8182 13.5002 17.8256C13.5002 17.833 13.5002 17.8404 13.5002 17.8479C13.5002 17.8553 13.5002 17.8628 13.5002 17.8703C13.5002 17.8778 13.5002 17.8853 13.5002 17.8929C13.5002 17.9004 13.5002 17.9079 13.5002 17.9155C13.5002 17.9231 13.5002 17.9307 13.5002 17.9383C13.5002 17.9459 13.5002 17.9535 13.5002 17.9612C13.5002 17.9688 13.5002 17.9765 13.5002 17.9842C13.5002 17.9919 13.5002 17.9996 13.5002 18.0073C13.5002 18.0151 13.5002 18.0228 13.5002 18.0306C13.5002 18.0384 13.5002 18.0462 13.5002 18.054C13.5002 18.0618 13.5002 18.0696 13.5002 18.0775C13.5002 18.0853 13.5002 18.0932 13.5002 18.1011C13.5002 18.109 13.5002 18.1169 13.5002 18.1248C13.5002 18.1327 13.5002 18.1407 13.5002 18.1487C13.5002 18.1566 13.5002 18.1646 13.5002 18.1726C13.5002 18.1806 13.5002 18.1887 13.5002 18.1967C13.5002 18.2048 13.5002 18.2128 13.5002 18.2209C13.5002 18.229 13.5002 18.2371 13.5002 18.2453C13.5002 18.2534 13.5002 18.2616 13.5002 18.2697C13.5002 18.2779 13.5002 18.2861 13.5002 18.2943C13.5002 18.3025 13.5002 18.3108 13.5002 18.319C13.5002 18.3273 13.5002 18.3356 13.5002 18.3439C13.5002 18.3522 13.5002 18.3605 13.5002 18.3688C13.5002 18.3772 13.5002 18.3855 13.5002 18.3939C13.5002 18.4023 13.5002 18.4107 13.5002 18.4191C13.5002 18.4275 13.5002 18.436 13.5002 18.4444C13.5002 18.4529 13.5002 18.4614 13.5002 18.4699C13.5002 18.4784 13.5002 18.4869 13.5002 18.4955C13.5002 18.504 13.5002 18.5126 13.5002 18.5212C13.5002 18.5297 13.5002 18.5384 13.5002 18.547C13.5002 18.5556 13.5002 18.5643 13.5002 18.5729C13.5002 18.5816 13.5002 18.5903 13.5002 18.599C13.5002 18.6077 13.5002 18.6165 13.5002 18.6252C13.5002 18.634 13.5002 18.6428 13.5002 18.6516C13.5002 18.6604 13.5002 18.6692 13.5002 18.678C13.5002 18.6869 13.5002 18.6957 13.5002 18.7046C13.5002 18.7135 13.5002 18.7224 13.5002 18.7313C13.5002 18.7402 13.5002 18.7492 13.5002 18.7582C13.5002 18.7671 13.5002 18.7761 13.5002 18.7851C13.5002 18.7941 13.5002 18.8032 13.5002 18.8122C13.5002 18.8213 13.5002 18.8304 13.5002 18.8395C13.5002 18.8486 13.5002 18.8577 13.5002 18.8668C13.5002 18.876 13.5002 18.8851 13.5002 18.8943C13.5002 18.9035 13.5002 18.9127 13.5002 18.9219C13.5002 18.9312 13.5002 18.9404 13.5002 18.9497C13.5002 18.959 13.5002 18.9682 13.5002 18.9776C13.5002 18.9869 13.5002 18.9962 13.5002 19.0056C13.5002 19.0149 13.5002 19.0243 13.5002 19.0337C13.5002 19.0431 13.5002 19.0525 13.5002 19.062C13.5002 19.0714 13.5002 19.0809 13.5002 19.0904C13.5002 19.0999 13.5002 19.1094 13.5002 19.1189C13.5002 19.1285 13.5002 19.138 13.5002 19.1476C13.5002 19.1572 13.5002 19.1668 13.5002 19.1764C13.5002 19.186 13.5002 19.1957 13.5002 19.2053C13.5002 19.215 13.5002 19.2247 13.5002 19.2344C13.5002 19.2441 13.5002 19.2539 13.5002 19.2636C13.5002 19.2734 13.5002 19.2831 13.5002 19.2929C13.5002 19.3027 13.5002 19.3126 13.5002 19.3224C13.5002 19.3323 13.5002 19.3421 13.5002 19.352C13.5002 19.3619 13.5002 19.3718 13.5002 19.3818C13.5002 19.3917 13.5002 19.4017 13.5002 19.4116C13.5002 19.4216 13.5002 19.4316 13.5002 19.4417C13.5002 19.4517 13.5002 19.4617 13.5002 19.4718C13.5002 19.4819 13.5002 19.492 13.5002 19.5021C13.5002 19.5122 13.5002 19.5223 13.5002 19.5325C13.5002 19.5427 13.5002 19.5528 13.5002 19.5631C13.5002 19.5733 13.5002 19.5835 13.5002 19.5938C13.5002 19.604 13.5002 19.6143 13.5002 19.6246C13.5002 19.6349 13.5002 19.6452 13.5002 19.6555C13.5002 19.6659 13.5002 19.6763 13.5002 19.6867C13.5002 19.697 13.5002 19.7075 13.5002 19.7179C13.5002 19.7283 13.5002 19.7388 13.5002 19.7493C13.5002 19.7598 13.5002 19.7703 13.5002 19.7808C13.5002 19.7913 13.5002 19.8019 13.5002 19.8125C13.5002 19.823 13.5002 19.8336 13.5002 19.8443C13.5002 19.8549 13.5002 19.8655 13.5002 19.8762C13.5002 19.8869 13.5002 19.8976 13.5002 19.9083C13.5002 19.919 13.5002 19.9297 13.5002 19.9405C13.5002 19.9513 13.5002 19.9621 13.5002 19.9729C13.5002 19.9837 13.5002 19.9945 13.5002 20.0054C13.5002 20.0162 13.5002 20.0271 13.5002 20.038C13.5002 20.0489 13.5002 20.0598 13.5002 20.0708C13.5002 20.0817 13.5002 20.0927 13.5002 20.1037C13.5002 20.1147 13.5002 20.1257 13.5002 20.1368C13.5002 20.1478 13.5002 20.1589 13.5002 20.17C13.5002 20.1811 13.5002 20.1922 13.5002 20.2034C13.5002 20.2145 13.5002 20.2257 13.5002 20.2369C13.5002 20.248 13.5002 20.2593 13.5002 20.2705C13.5002 20.2817 13.5002 20.293 13.5002 20.3043C13.5002 20.3156 13.5002 20.3269 13.5002 20.3382C13.5002 20.3495 13.5002 20.3609 13.5002 20.3723C13.5002 20.3837 13.5002 20.3951 13.5002 20.4065C13.5002 20.4179 13.5002 20.4294 13.5002 20.4409C13.5002 20.4523 13.5002 20.4639 13.5002 20.4754C13.5002 20.4869 13.5002 20.4985 13.5002 20.51C13.5002 20.5216 13.5002 20.5332 13.5002 20.5448C13.5002 20.5565 13.5002 20.5681 13.5002 20.5798C13.5002 20.5915 13.5002 20.6032 13.5002 20.6149C13.5002 20.6266 13.5002 20.6383 13.5002 20.6501C13.5002 20.6619 13.5002 20.6737 13.5002 20.6855C13.5002 20.6973 13.5002 20.7092 13.5002 20.721C13.5002 20.7329 13.5002 20.7448 13.5002 20.7567C13.5002 20.7686 13.5002 20.7806 13.5002 20.7925C13.5002 20.8045 13.5002 20.8165 13.5002 20.8285C13.5002 20.8405 13.5002 20.8526 13.5002 20.8647C13.5002 20.8767 13.5002 20.8888 13.5002 20.9009C13.5002 20.913 13.5002 20.9252 13.5002 20.9374C13.5002 20.9495 13.5002 20.9617 13.5002 20.9739C13.5002 20.9861 13.5002 20.9984 13.5002 21.0107C13.5002 21.0229 13.5002 21.0352 13.5002 21.0475C13.5002 21.0598 13.5002 21.0722 13.5002 21.0846C13.5002 21.0969 13.5002 21.1093 13.5002 21.1217C13.5002 21.1341 13.5002 21.1466 13.5002 21.1591C13.5002 21.1715 13.5002 21.184 13.5002 21.1965C13.5002 21.2091 13.5002 21.2216 13.5002 21.2342C13.5002 21.2467 13.5002 21.2593 13.5002 21.2719C13.5002 21.2846 13.5002 21.2972 13.5002 21.3099C13.5002 21.3226 13.5002 21.3353 13.5002 21.348C13.5002 21.3607 13.5002 21.3734 13.5002 21.3862C13.5002 21.399 13.5002 21.4118 13.5002 21.4246C13.5002 21.4374 13.5002 21.4503 13.5002 21.4632C13.5002 21.476 13.5002 21.4889 13.5002 21.5019C13.5002 21.5148 13.5002 21.5277 13.5002 21.5407C13.5002 21.5537 13.5002 21.5667 13.5002 21.5797C13.5002 21.5927 13.5002 21.6058 13.5002 21.6189C13.5002 21.632 13.5002 21.6451 13.5002 21.6582C13.5002 21.6713 13.5002 21.6845 13.5002 21.6977C13.5002 21.7109 13.5002 21.7241 13.5002 21.7373C13.5002 21.7505 13.5002 21.7638 13.5002 21.7771C13.5002 21.7904 13.5002 21.8037 13.5002 21.817C13.5002 21.8304 13.5002 21.8438 13.5002 21.8571H15.0002H16.5002C16.5002 21.8438 16.5002 21.8304 16.5002 21.817C16.5002 21.8037 16.5002 21.7904 16.5002 21.7771C16.5002 21.7638 16.5002 21.7505 16.5002 21.7373C16.5002 21.7241 16.5002 21.7109 16.5002 21.6977C16.5002 21.6845 16.5002 21.6713 16.5002 21.6582C16.5002 21.6451 16.5002 21.632 16.5002 21.6189C16.5002 21.6058 16.5002 21.5927 16.5002 21.5797C16.5002 21.5667 16.5002 21.5537 16.5002 21.5407C16.5002 21.5277 16.5002 21.5148 16.5002 21.5019C16.5002 21.4889 16.5002 21.476 16.5002 21.4632C16.5002 21.4503 16.5002 21.4374 16.5002 21.4246C16.5002 21.4118 16.5002 21.399 16.5002 21.3862C16.5002 21.3734 16.5002 21.3607 16.5002 21.348C16.5002 21.3353 16.5002 21.3226 16.5002 21.3099C16.5002 21.2972 16.5002 21.2846 16.5002 21.2719C16.5002 21.2593 16.5002 21.2467 16.5002 21.2342C16.5002 21.2216 16.5002 21.2091 16.5002 21.1965C16.5002 21.184 16.5002 21.1715 16.5002 21.1591C16.5002 21.1466 16.5002 21.1341 16.5002 21.1217C16.5002 21.1093 16.5002 21.0969 16.5002 21.0846C16.5002 21.0722 16.5002 21.0598 16.5002 21.0475C16.5002 21.0352 16.5002 21.0229 16.5002 21.0107C16.5002 20.9984 16.5002 20.9861 16.5002 20.9739C16.5002 20.9617 16.5002 20.9495 16.5002 20.9374C16.5002 20.9252 16.5002 20.913 16.5002 20.9009C16.5002 20.8888 16.5002 20.8767 16.5002 20.8647C16.5002 20.8526 16.5002 20.8405 16.5002 20.8285C16.5002 20.8165 16.5002 20.8045 16.5002 20.7925C16.5002 20.7806 16.5002 20.7686 16.5002 20.7567C16.5002 20.7448 16.5002 20.7329 16.5002 20.721C16.5002 20.7092 16.5002 20.6973 16.5002 20.6855C16.5002 20.6737 16.5002 20.6619 16.5002 20.6501C16.5002 20.6383 16.5002 20.6266 16.5002 20.6149C16.5002 20.6032 16.5002 20.5915 16.5002 20.5798C16.5002 20.5681 16.5002 20.5565 16.5002 20.5448C16.5002 20.5332 16.5002 20.5216 16.5002 20.51C16.5002 20.4985 16.5002 20.4869 16.5002 20.4754C16.5002 20.4639 16.5002 20.4523 16.5002 20.4409C16.5002 20.4294 16.5002 20.4179 16.5002 20.4065C16.5002 20.3951 16.5002 20.3837 16.5002 20.3723C16.5002 20.3609 16.5002 20.3495 16.5002 20.3382C16.5002 20.3269 16.5002 20.3156 16.5002 20.3043C16.5002 20.293 16.5002 20.2817 16.5002 20.2705C16.5002 20.2593 16.5002 20.248 16.5002 20.2369C16.5002 20.2257 16.5002 20.2145 16.5002 20.2034C16.5002 20.1922 16.5002 20.1811 16.5002 20.17C16.5002 20.1589 16.5002 20.1478 16.5002 20.1368C16.5002 20.1257 16.5002 20.1147 16.5002 20.1037C16.5002 20.0927 16.5002 20.0817 16.5002 20.0708C16.5002 20.0598 16.5002 20.0489 16.5002 20.038C16.5002 20.0271 16.5002 20.0162 16.5002 20.0054C16.5002 19.9945 16.5002 19.9837 16.5002 19.9729C16.5002 19.9621 16.5002 19.9513 16.5002 19.9405C16.5002 19.9297 16.5002 19.919 16.5002 19.9083C16.5002 19.8976 16.5002 19.8869 16.5002 19.8762C16.5002 19.8655 16.5002 19.8549 16.5002 19.8443C16.5002 19.8336 16.5002 19.823 16.5002 19.8125C16.5002 19.8019 16.5002 19.7913 16.5002 19.7808C16.5002 19.7703 16.5002 19.7598 16.5002 19.7493C16.5002 19.7388 16.5002 19.7283 16.5002 19.7179C16.5002 19.7075 16.5002 19.697 16.5002 19.6867C16.5002 19.6763 16.5002 19.6659 16.5002 19.6555C16.5002 19.6452 16.5002 19.6349 16.5002 19.6246C16.5002 19.6143 16.5002 19.604 16.5002 19.5938C16.5002 19.5835 16.5002 19.5733 16.5002 19.5631C16.5002 19.5528 16.5002 19.5427 16.5002 19.5325C16.5002 19.5223 16.5002 19.5122 16.5002 19.5021C16.5002 19.492 16.5002 19.4819 16.5002 19.4718C16.5002 19.4617 16.5002 19.4517 16.5002 19.4417C16.5002 19.4316 16.5002 19.4216 16.5002 19.4116C16.5002 19.4017 16.5002 19.3917 16.5002 19.3818C16.5002 19.3718 16.5002 19.3619 16.5002 19.352C16.5002 19.3421 16.5002 19.3323 16.5002 19.3224C16.5002 19.3126 16.5002 19.3027 16.5002 19.2929C16.5002 19.2831 16.5002 19.2734 16.5002 19.2636C16.5002 19.2539 16.5002 19.2441 16.5002 19.2344C16.5002 19.2247 16.5002 19.215 16.5002 19.2053C16.5002 19.1957 16.5002 19.186 16.5002 19.1764C16.5002 19.1668 16.5002 19.1572 16.5002 19.1476C16.5002 19.138 16.5002 19.1285 16.5002 19.1189C16.5002 19.1094 16.5002 19.0999 16.5002 19.0904C16.5002 19.0809 16.5002 19.0714 16.5002 19.062C16.5002 19.0525 16.5002 19.0431 16.5002 19.0337C16.5002 19.0243 16.5002 19.0149 16.5002 19.0056C16.5002 18.9962 16.5002 18.9869 16.5002 18.9776C16.5002 18.9682 16.5002 18.959 16.5002 18.9497C16.5002 18.9404 16.5002 18.9312 16.5002 18.9219C16.5002 18.9127 16.5002 18.9035 16.5002 18.8943C16.5002 18.8851 16.5002 18.876 16.5002 18.8668C16.5002 18.8577 16.5002 18.8486 16.5002 18.8395C16.5002 18.8304 16.5002 18.8213 16.5002 18.8122C16.5002 18.8032 16.5002 18.7941 16.5002 18.7851C16.5002 18.7761 16.5002 18.7671 16.5002 18.7582C16.5002 18.7492 16.5002 18.7402 16.5002 18.7313C16.5002 18.7224 16.5002 18.7135 16.5002 18.7046C16.5002 18.6957 16.5002 18.6869 16.5002 18.678C16.5002 18.6692 16.5002 18.6604 16.5002 18.6516C16.5002 18.6428 16.5002 18.634 16.5002 18.6252C16.5002 18.6165 16.5002 18.6077 16.5002 18.599C16.5002 18.5903 16.5002 18.5816 16.5002 18.5729C16.5002 18.5643 16.5002 18.5556 16.5002 18.547C16.5002 18.5384 16.5002 18.5297 16.5002 18.5212C16.5002 18.5126 16.5002 18.504 16.5002 18.4955C16.5002 18.4869 16.5002 18.4784 16.5002 18.4699C16.5002 18.4614 16.5002 18.4529 16.5002 18.4444C16.5002 18.436 16.5002 18.4275 16.5002 18.4191C16.5002 18.4107 16.5002 18.4023 16.5002 18.3939C16.5002 18.3855 16.5002 18.3772 16.5002 18.3688C16.5002 18.3605 16.5002 18.3522 16.5002 18.3439C16.5002 18.3356 16.5002 18.3273 16.5002 18.319C16.5002 18.3108 16.5002 18.3025 16.5002 18.2943C16.5002 18.2861 16.5002 18.2779 16.5002 18.2697C16.5002 18.2616 16.5002 18.2534 16.5002 18.2453C16.5002 18.2371 16.5002 18.229 16.5002 18.2209C16.5002 18.2128 16.5002 18.2048 16.5002 18.1967C16.5002 18.1887 16.5002 18.1806 16.5002 18.1726C16.5002 18.1646 16.5002 18.1566 16.5002 18.1487C16.5002 18.1407 16.5002 18.1327 16.5002 18.1248C16.5002 18.1169 16.5002 18.109 16.5002 18.1011C16.5002 18.0932 16.5002 18.0853 16.5002 18.0775C16.5002 18.0696 16.5002 18.0618 16.5002 18.054C16.5002 18.0462 16.5002 18.0384 16.5002 18.0306C16.5002 18.0228 16.5002 18.0151 16.5002 18.0073C16.5002 17.9996 16.5002 17.9919 16.5002 17.9842C16.5002 17.9765 16.5002 17.9688 16.5002 17.9612C16.5002 17.9535 16.5002 17.9459 16.5002 17.9383C16.5002 17.9307 16.5002 17.9231 16.5002 17.9155C16.5002 17.9079 16.5002 17.9004 16.5002 17.8929C16.5002 17.8853 16.5002 17.8778 16.5002 17.8703C16.5002 17.8628 16.5002 17.8553 16.5002 17.8479C16.5002 17.8404 16.5002 17.833 16.5002 17.8256C16.5002 17.8182 16.5002 17.8108 16.5002 17.8034C16.5002 17.796 16.5002 17.7887 16.5002 17.7813C16.5002 17.774 16.5002 17.7667 16.5002 17.7594C16.5002 17.7521 16.5002 17.7448 16.5002 17.7375C16.5002 17.7303 16.5002 17.723 16.5002 17.7158C16.5002 17.7086 16.5002 17.7014 16.5002 17.6942C16.5002 17.687 16.5002 17.6798 16.5002 17.6727C16.5002 17.6655 16.5002 17.6584 16.5002 17.6513C16.5002 17.6442 16.5002 17.6371 16.5002 17.63C16.5002 17.623 16.5002 17.6159 16.5002 17.6089C16.5002 17.6019 16.5002 17.5948 16.5002 17.5878C16.5002 17.5809 16.5002 17.5739 16.5002 17.5669C16.5002 17.56 16.5002 17.553 16.5002 17.5461C16.5002 17.5392 16.5002 17.5323 16.5002 17.5254C16.5002 17.5185 16.5002 17.5117 16.5002 17.5048C16.5002 17.498 16.5002 17.4912 16.5002 17.4843C16.5002 17.4775 16.5002 17.4708 16.5002 17.464C16.5002 17.4572 16.5002 17.4505 16.5002 17.4437C16.5002 17.437 16.5002 17.4303 16.5002 17.4236C16.5002 17.4169 16.5002 17.4102 16.5002 17.4036C16.5002 17.3969 16.5002 17.3903 16.5002 17.3836C16.5002 17.377 16.5002 17.3704 16.5002 17.3638C16.5002 17.3572 16.5002 17.3507 16.5002 17.3441C16.5002 17.3376 16.5002 17.3311 16.5002 17.3245C16.5002 17.318 16.5002 17.3115 16.5002 17.3051C16.5002 17.2986 16.5002 17.2921 16.5002 17.2857C16.5002 17.2793 16.5002 17.2728 16.5002 17.2664C16.5002 17.26 16.5002 17.2536 16.5002 17.2473C16.5002 17.2409 16.5002 17.2346 16.5002 17.2282C16.5002 17.2219 16.5002 17.2156 16.5002 17.2093C16.5002 17.203 16.5002 17.1967 16.5002 17.1905C16.5002 17.1842 16.5002 17.178 16.5002 17.1717C16.5002 17.1655 16.5002 17.1593 16.5002 17.1531C16.5002 17.1469 16.5002 17.1408 16.5002 17.1346C16.5002 17.1285 16.5002 17.1223 16.5002 17.1162C16.5002 17.1101 16.5002 17.104 16.5002 17.0979C16.5002 17.0918 16.5002 17.0858 16.5002 17.0797C16.5002 17.0737 16.5002 17.0677 16.5002 17.0617C16.5002 17.0556 16.5002 17.0496 16.5002 17.0437C16.5002 17.0377 16.5002 17.0317 16.5002 17.0258C16.5002 17.0199 16.5002 17.0139 16.5002 17.008C16.5002 17.0021 16.5002 16.9962 16.5002 16.9904C16.5002 16.9845 16.5002 16.9786 16.5002 16.9728C16.5002 16.967 16.5002 16.9611 16.5002 16.9553C16.5002 16.9495 16.5002 16.9438 16.5002 16.938C16.5002 16.9322 16.5002 16.9265 16.5002 16.9207C16.5002 16.915 16.5002 16.9093 16.5002 16.9036C16.5002 16.8979 16.5002 16.8922 16.5002 16.8865C16.5002 16.8809 16.5002 16.8752 16.5002 16.8696C16.5002 16.864 16.5002 16.8583 16.5002 16.8528C16.5002 16.8472 16.5002 16.8416 16.5002 16.836C16.5002 16.8304 16.5002 16.8249 16.5002 16.8194C16.5002 16.8138 16.5002 16.8083 16.5002 16.8028C16.5002 16.7973 16.5002 16.7919 16.5002 16.7864C16.5002 16.7809 16.5002 16.7755 16.5002 16.7701C16.5002 16.7646 16.5002 16.7592 16.5002 16.7538C16.5002 16.7484 16.5002 16.743 16.5002 16.7377C16.5002 16.7323 16.5002 16.727 16.5002 16.7216C16.5002 16.7163 16.5002 16.711 16.5002 16.7057C16.5002 16.7004 16.5002 16.6951 16.5002 16.6899C16.5002 16.6846 16.5002 16.6793 16.5002 16.6741C16.5002 16.6689 16.5002 16.6637 16.5002 16.6585C16.5002 16.6533 16.5002 16.6481 16.5002 16.6429C16.5002 16.6377 16.5002 16.6326 16.5002 16.6275C16.5002 16.6223 16.5002 16.6172 16.5002 16.6121C16.5002 16.607 16.5002 16.6019 16.5002 16.5969C16.5002 16.5918 16.5002 16.5867 16.5002 16.5817C16.5002 16.5767 16.5002 16.5716 16.5002 16.5666C16.5002 16.5616 16.5002 16.5566 16.5002 16.5517C16.5002 16.5467 16.5002 16.5417 16.5002 16.5368C16.5002 16.5318 16.5002 16.5269 16.5002 16.522C16.5002 16.5171 16.5002 16.5122 16.5002 16.5073C16.5002 16.5025 16.5002 16.4976 16.5002 16.4927C16.5002 16.4879 16.5002 16.4831 16.5002 16.4783C16.5002 16.4734 16.5002 16.4686 16.5002 16.4639C16.5002 16.4591 16.5002 16.4543 16.5002 16.4495C16.5002 16.4448 16.5002 16.4401 16.5002 16.4353C16.5002 16.4306 16.5002 16.4259 16.5002 16.4212C16.5002 16.4165 16.5002 16.4119 16.5002 16.4072C16.5002 16.4025 16.5002 16.3979 16.5002 16.3933C16.5002 16.3886 16.5002 16.384 16.5002 16.3794C16.5002 16.3748 16.5002 16.3702 16.5002 16.3657C16.5002 16.3611 16.5002 16.3566 16.5002 16.352C16.5002 16.3475 16.5002 16.343 16.5002 16.3385C16.5002 16.3339 16.5002 16.3295 16.5002 16.325C16.5002 16.3205 16.5002 16.316 16.5002 16.3116C16.5002 16.3071 16.5002 16.3027 16.5002 16.2983C16.5002 16.2939 16.5002 16.2895 16.5002 16.2851C16.5002 16.2807 16.5002 16.2763 16.5002 16.272C16.5002 16.2676 16.5002 16.2633 16.5002 16.259C16.5002 16.2546 16.5002 16.2503 16.5002 16.246C16.5002 16.2417 16.5002 16.2374 16.5002 16.2332C16.5002 16.2289 16.5002 16.2247 16.5002 16.2204C16.5002 16.2162 16.5002 16.212 16.5002 16.2078C16.5002 16.2035 16.5002 16.1994 16.5002 16.1952C16.5002 16.191 16.5002 16.1868 16.5002 16.1827C16.5002 16.1785 16.5002 16.1744 16.5002 16.1703C16.5002 16.1662 16.5002 16.162 16.5002 16.158C16.5002 16.1539 16.5002 16.1498 16.5002 16.1457C16.5002 16.1417 16.5002 16.1376 16.5002 16.1336C16.5002 16.1295 16.5002 16.1255 16.5002 16.1215C16.5002 16.1175 16.5002 16.1135 16.5002 16.1095C16.5002 16.1056 16.5002 16.1016 16.5002 16.0977C16.5002 16.0937 16.5002 16.0898 16.5002 16.0859C16.5002 16.0819 16.5002 16.078 16.5002 16.0741C16.5002 16.0702 16.5002 16.0664 16.5002 16.0625C16.5002 16.0586 16.5002 16.0548 16.5002 16.051C16.5002 16.0471 16.5002 16.0433 16.5002 16.0395C16.5002 16.0357 16.5002 16.0319 16.5002 16.0281C16.5002 16.0243 16.5002 16.0206 16.5002 16.0168C16.5002 16.0131 16.5002 16.0093 16.5002 16.0056C16.5002 16.0019 16.5002 15.9982 16.5002 15.9945C16.5002 15.9908 16.5002 15.9871 16.5002 15.9834C16.5002 15.9797 16.5002 15.9761 16.5002 15.9724C16.5002 15.9688 16.5002 15.9652 16.5002 15.9616C16.5002 15.9579 16.5002 15.9543 16.5002 15.9508C16.5002 15.9472 16.5002 15.9436 16.5002 15.94C16.5002 15.9365 16.5002 15.9329 16.5002 15.9294C16.5002 15.9259 16.5002 15.9223 16.5002 15.9188C16.5002 15.9153 16.5002 15.9118 16.5002 15.9084C16.5002 15.9049 16.5002 15.9014 16.5002 15.898C16.5002 15.8945 16.5002 15.8911 16.5002 15.8876C16.5002 15.8842 16.5002 15.8808 16.5002 15.8774C16.5002 15.874 16.5002 15.8706 16.5002 15.8672C16.5002 15.8639 16.5002 15.8605 16.5002 15.8571C16.5002 15.8538 16.5002 15.8505 16.5002 15.8471C16.5002 15.8438 16.5002 15.8405 16.5002 15.8372C16.5002 15.8339 16.5002 15.8306 16.5002 15.8274C16.5002 15.8241 16.5002 15.8208 16.5002 15.8176C16.5002 15.8143 16.5002 15.8111 16.5002 15.8079C16.5002 15.8047 16.5002 15.8015 16.5002 15.7983C16.5002 15.7951 16.5002 15.7919 16.5002 15.7887C16.5002 15.7856 16.5002 15.7824 16.5002 15.7793C16.5002 15.7761 16.5002 15.773 16.5002 15.7699C16.5002 15.7668 16.5002 15.7637 16.5002 15.7606C16.5002 15.7575 16.5002 15.7544 16.5002 15.7513C16.5002 15.7483 16.5002 15.7452 16.5002 15.7422C16.5002 15.7391 16.5002 15.7361 16.5002 15.7331C16.5002 15.7301 16.5002 15.7271 16.5002 15.7241C16.5002 15.7211 16.5002 15.7181 16.5002 15.7151C16.5002 15.7122 16.5002 15.7092 16.5002 15.7063C16.5002 15.7033 16.5002 15.7004 16.5002 15.6975C16.5002 15.6946 16.5002 15.6916 16.5002 15.6888C16.5002 15.6859 16.5002 15.683 16.5002 15.6801C16.5002 15.6772 16.5002 15.6744 16.5002 15.6715C16.5002 15.6687 16.5002 15.6659 16.5002 15.663C16.5002 15.6602 16.5002 15.6574 16.5002 15.6546C16.5002 15.6518 16.5002 15.649 16.5002 15.6463C16.5002 15.6435 16.5002 15.6407 16.5002 15.638C16.5002 15.6352 16.5002 15.6325 16.5002 15.6298C16.5002 15.627 16.5002 15.6243 16.5002 15.6216C16.5002 15.6189 16.5002 15.6162 16.5002 15.6135C16.5002 15.6109 16.5002 15.6082 16.5002 15.6055C16.5002 15.6029 16.5002 15.6002 16.5002 15.5976C16.5002 15.595 16.5002 15.5923 16.5002 15.5897C16.5002 15.5871 16.5002 15.5845 16.5002 15.5819C16.5002 15.5794 16.5002 15.5768 16.5002 15.5742C16.5002 15.5717 16.5002 15.5691 16.5002 15.5666C16.5002 15.564 16.5002 15.5615 16.5002 15.559C16.5002 15.5565 16.5002 15.554 16.5002 15.5515C16.5002 15.549 16.5002 15.5465 16.5002 15.544C16.5002 15.5415 16.5002 15.5391 16.5002 15.5366C16.5002 15.5342 16.5002 15.5317 16.5002 15.5293C16.5002 15.5269 16.5002 15.5245 16.5002 15.5221C16.5002 15.5196 16.5002 15.5173 16.5002 15.5149C16.5002 15.5125 16.5002 15.5101 16.5002 15.5077C16.5002 15.5054 16.5002 15.503 16.5002 15.5007C16.5002 15.4984 16.5002 15.496 16.5002 15.4937C16.5002 15.4914 16.5002 15.4891 16.5002 15.4868C16.5002 15.4845 16.5002 15.4822 16.5002 15.4799C16.5002 15.4777 16.5002 15.4754 16.5002 15.4731C16.5002 15.4709 16.5002 15.4686 16.5002 15.4664C16.5002 15.4642 16.5002 15.462 16.5002 15.4598C16.5002 15.4575 16.5002 15.4553 16.5002 15.4532C16.5002 15.451 16.5002 15.4488 16.5002 15.4466C16.5002 15.4444 16.5002 15.4423 16.5002 15.4401C16.5002 15.438 16.5002 15.4359 16.5002 15.4337C16.5002 15.4316 16.5002 15.4295 16.5002 15.4274C16.5002 15.4253 16.5002 15.4232 16.5002 15.4211C16.5002 15.419 16.5002 15.4169 16.5002 15.4149C16.5002 15.4128 16.5002 15.4108 16.5002 15.4087C16.5002 15.4067 16.5002 15.4046 16.5002 15.4026C16.5002 15.4006 16.5002 15.3986 16.5002 15.3966C16.5002 15.3946 16.5002 15.3926 16.5002 15.3906C16.5002 15.3886 16.5002 15.3866 16.5002 15.3847C16.5002 15.3827 16.5002 15.3808 16.5002 15.3788C16.5002 15.3769 16.5002 15.3749 16.5002 15.373C16.5002 15.3711 16.5002 15.3692 16.5002 15.3673C16.5002 15.3654 16.5002 15.3635 16.5002 15.3616C16.5002 15.3597 16.5002 15.3579 16.5002 15.356C16.5002 15.3541 16.5002 15.3523 16.5002 15.3504C16.5002 15.3486 16.5002 15.3467 16.5002 15.3449C16.5002 15.3431 16.5002 15.3413 16.5002 15.3395C16.5002 15.3377 16.5002 15.3359 16.5002 15.3341C16.5002 15.3323 16.5002 15.3305 16.5002 15.3288C16.5002 15.327 16.5002 15.3252 16.5002 15.3235C16.5002 15.3217 16.5002 15.32 16.5002 15.3183C16.5002 15.3165 16.5002 15.3148 16.5002 15.3131C16.5002 15.3114 16.5002 15.3097 16.5002 15.308C16.5002 15.3063 16.5002 15.3046 16.5002 15.3029C16.5002 15.3013 16.5002 15.2996 16.5002 15.298C16.5002 15.2963 16.5002 15.2947 16.5002 15.293C16.5002 15.2914 16.5002 15.2898 16.5002 15.2881C16.5002 15.2865 16.5002 15.2849 16.5002 15.2833C16.5002 15.2817 16.5002 15.2801 16.5002 15.2785C16.5002 15.2769 16.5002 15.2754 16.5002 15.2738C16.5002 15.2722 16.5002 15.2707 16.5002 15.2691C16.5002 15.2676 16.5002 15.2661 16.5002 15.2645C16.5002 15.263 16.5002 15.2615 16.5002 15.26C16.5002 15.2585 16.5002 15.257 16.5002 15.2555C16.5002 15.254 16.5002 15.2525 16.5002 15.251C16.5002 15.2495 16.5002 15.2481 16.5002 15.2466C16.5002 15.2451 16.5002 15.2437 16.5002 15.2422C16.5002 15.2408 16.5002 15.2394 16.5002 15.2379C16.5002 15.2365 16.5002 15.2351 16.5002 15.2337C16.5002 15.2323 16.5002 15.2309 16.5002 15.2295C16.5002 15.2281 16.5002 15.2267 16.5002 15.2254C16.5002 15.224 16.5002 15.2226 16.5002 15.2213C16.5002 15.2199 16.5002 15.2186 16.5002 15.2172C16.5002 15.2159 16.5002 15.2145 16.5002 15.2132C16.5002 15.2119 16.5002 15.2106 16.5002 15.2093C16.5002 15.208 16.5002 15.2067 16.5002 15.2054C16.5002 15.2041 16.5002 15.2028 16.5002 15.2015C16.5002 15.2002 16.5002 15.199 16.5002 15.1977C16.5002 15.1965 16.5002 15.1952 16.5002 15.194C16.5002 15.1927 16.5002 15.1915 16.5002 15.1903C16.5002 15.189 16.5002 15.1878 16.5002 15.1866C16.5002 15.1854 16.5002 15.1842 16.5002 15.183C16.5002 15.1818 16.5002 15.1806 16.5002 15.1794C16.5002 15.1782 16.5002 15.1771 16.5002 15.1759C16.5002 15.1747 16.5002 15.1736 16.5002 15.1724C16.5002 15.1713 16.5002 15.1701 16.5002 15.169C16.5002 15.1679 16.5002 15.1667 16.5002 15.1656C16.5002 15.1645 16.5002 15.1634 16.5002 15.1623C16.5002 15.1612 16.5002 15.1601 16.5002 15.159C16.5002 15.1579 16.5002 15.1568 16.5002 15.1558C16.5002 15.1547 16.5002 15.1536 16.5002 15.1526C16.5002 15.1515 16.5002 15.1504 16.5002 15.1494C16.5002 15.1484 16.5002 15.1473 16.5002 15.1463C16.5002 15.1453 16.5002 15.1442 16.5002 15.1432C16.5002 15.1422 16.5002 15.1412 16.5002 15.1402C16.5002 15.1392 16.5002 15.1382 16.5002 15.1372C16.5002 15.1362 16.5002 15.1352 16.5002 15.1343C16.5002 15.1333 16.5002 15.1323 16.5002 15.1314C16.5002 15.1304 16.5002 15.1295 16.5002 15.1285C16.5002 15.1276 16.5002 15.1266 16.5002 15.1257C16.5002 15.1248 16.5002 15.1238 16.5002 15.1229C16.5002 15.122 16.5002 15.1211 16.5002 15.1202C16.5002 15.1193 16.5002 15.1184 16.5002 15.1175C16.5002 15.1166 16.5002 15.1157 16.5002 15.1149C16.5002 15.114 16.5002 15.1131 16.5002 15.1122C16.5002 15.1114 16.5002 15.1105 16.5002 15.1097C16.5002 15.1088 16.5002 15.108 16.5002 15.1071C16.5002 15.1063 16.5002 15.1055 16.5002 15.1047C16.5002 15.1038 16.5002 15.103 16.5002 15.1022C16.5002 15.1014 16.5002 15.1006 16.5002 15.0998C16.5002 15.099 16.5002 15.0982 16.5002 15.0974C16.5002 15.0966 16.5002 15.0958 16.5002 15.0951C16.5002 15.0943 16.5002 15.0935 16.5002 15.0928C16.5002 15.092 16.5002 15.0913 16.5002 15.0905C16.5002 15.0898 16.5002 15.089 16.5002 15.0883C16.5002 15.0875 16.5002 15.0868 16.5002 15.0861C16.5002 15.0854 16.5002 15.0847 16.5002 15.0839C16.5002 15.0832 16.5002 15.0825 16.5002 15.0818C16.5002 15.0811 16.5002 15.0804 16.5002 15.0797C16.5002 15.0791 16.5002 15.0784 16.5002 15.0777C16.5002 15.077 16.5002 15.0764 16.5002 15.0757C16.5002 15.075 16.5002 15.0744 16.5002 15.0737C16.5002 15.0731 16.5002 15.0724 16.5002 15.0718C16.5002 15.0711 16.5002 15.0705 16.5002 15.0699C16.5002 15.0692 16.5002 15.0686 16.5002 15.068C16.5002 15.0674 16.5002 15.0668 16.5002 15.0662C16.5002 15.0656 16.5002 15.065 16.5002 15.0644C16.5002 15.0638 16.5002 15.0632 16.5002 15.0626C16.5002 15.062 16.5002 15.0614 16.5002 15.0608C16.5002 15.0603 16.5002 15.0597 16.5002 15.0591C16.5002 15.0586 16.5002 15.058 16.5002 15.0575C16.5002 15.0569 16.5002 15.0564 16.5002 15.0558C16.5002 15.0553 16.5002 15.0547 16.5002 15.0542C16.5002 15.0537 16.5002 15.0532 16.5002 15.0526C16.5002 15.0521 16.5002 15.0516 16.5002 15.0511C16.5002 15.0506 16.5002 15.0501 16.5002 15.0496C16.5002 15.0491 16.5002 15.0486 16.5002 15.0481C16.5002 15.0476 16.5002 15.0471 16.5002 15.0466C16.5002 15.0461 16.5002 15.0457 16.5002 15.0452C16.5002 15.0447 16.5002 15.0443 16.5002 15.0438C16.5002 15.0433 16.5002 15.0429 16.5002 15.0424C16.5002 15.042 16.5002 15.0415 16.5002 15.0411C16.5002 15.0407 16.5002 15.0402 16.5002 15.0398C16.5002 15.0394 16.5002 15.0389 16.5002 15.0385C16.5002 15.0381 16.5002 15.0377 16.5002 15.0372C16.5002 15.0368 16.5002 15.0364 16.5002 15.036C16.5002 15.0356 16.5002 15.0352 16.5002 15.0348C16.5002 15.0344 16.5002 15.034 16.5002 15.0336C16.5002 15.0333 16.5002 15.0329 16.5002 15.0325C16.5002 15.0321 16.5002 15.0317 16.5002 15.0314C16.5002 15.031 16.5002 15.0306 16.5002 15.0303C16.5002 15.0299 16.5002 15.0296 16.5002 15.0292C16.5002 15.0289 16.5002 15.0285 16.5002 15.0282C16.5002 15.0278 16.5002 15.0275 16.5002 15.0272C16.5002 15.0268 16.5002 15.0265 16.5002 15.0262C16.5002 15.0258 16.5002 15.0255 16.5002 15.0252C16.5002 15.0249 16.5002 15.0246 16.5002 15.0242C16.5002 15.0239 16.5002 15.0236 16.5002 15.0233C16.5002 15.023 16.5002 15.0227 16.5002 15.0224C16.5002 15.0221 16.5002 15.0218 16.5002 15.0216C16.5002 15.0213 16.5002 15.021 16.5002 15.0207C16.5002 15.0204 16.5002 15.0201 16.5002 15.0199C16.5002 15.0196 16.5002 15.0193 16.5002 15.0191C16.5002 15.0188 16.5002 15.0185 16.5002 15.0183C16.5002 15.018 16.5002 15.0178 16.5002 15.0175C16.5002 15.0173 16.5002 15.017 16.5002 15.0168C16.5002 15.0165 16.5002 15.0163 16.5002 15.0161C16.5002 15.0158 16.5002 15.0156 16.5002 15.0154C16.5002 15.0151 16.5002 15.0149 16.5002 15.0147C16.5002 15.0145 16.5002 15.0142 16.5002 15.014C16.5002 15.0138 16.5002 15.0136 16.5002 15.0134C16.5002 15.0132 16.5002 15.013 16.5002 15.0128C16.5002 15.0126 16.5002 15.0124 16.5002 15.0122C16.5002 15.012 16.5002 15.0118 16.5002 15.0116C16.5002 15.0114 16.5002 15.0112 16.5002 15.011C16.5002 15.0109 16.5002 15.0107 16.5002 15.0105C16.5002 15.0103 16.5002 15.0101 16.5002 15.01C16.5002 15.0098 16.5002 15.0096 16.5002 15.0095C16.5002 15.0093 16.5002 15.0091 16.5002 15.009C16.5002 15.0088 16.5002 15.0087 16.5002 15.0085C16.5002 15.0083 16.5002 15.0082 16.5002 15.008C16.5002 15.0079 16.5002 15.0077 16.5002 15.0076C16.5002 15.0075 16.5002 15.0073 16.5002 15.0072C16.5002 15.007 16.5002 15.0069 16.5002 15.0068C16.5002 15.0066 16.5002 15.0065 16.5002 15.0064C16.5002 15.0063 16.5002 15.0061 16.5002 15.006C16.5002 15.0059 16.5002 15.0058 16.5002 15.0057C16.5002 15.0055 16.5002 15.0054 16.5002 15.0053C16.5002 15.0052 16.5002 15.0051 16.5002 15.005C16.5002 15.0049 16.5002 15.0048 16.5002 15.0047C16.5002 15.0046 16.5002 15.0045 16.5002 15.0044C16.5002 15.0043 16.5002 15.0042 16.5002 15.0041C16.5002 15.004 16.5002 15.0039 16.5002 15.0038C16.5002 15.0037 16.5002 15.0036 16.5002 15.0035C16.5002 15.0034 16.5002 15.0034 16.5002 15.0033C16.5002 15.0032 16.5002 15.0031 16.5002 15.003C16.5002 15.003 16.5002 15.0029 16.5002 15.0028C16.5002 15.0027 16.5002 15.0027 16.5002 15.0026C16.5002 15.0025 16.5002 15.0024 16.5002 15.0024C16.5002 15.0023 16.5002 15.0023 16.5002 15.0022C16.5002 15.0021 16.5002 15.0021 16.5002 15.002C16.5002 15.0019 16.5002 15.0019 16.5002 15.0018C16.5002 15.0018 16.5002 15.0017 16.5002 15.0017C16.5002 15.0016 16.5002 15.0016 16.5002 15.0015C16.5002 15.0015 16.5002 15.0014 16.5002 15.0014C16.5002 15.0013 16.5002 15.0013 16.5002 15.0012C16.5002 15.0012 16.5002 15.0012 16.5002 15.0011C16.5002 15.0011 16.5002 15.001 16.5002 15.001C16.5002 15.001 16.5002 15.0009 16.5002 15.0009C16.5002 15.0009 16.5002 15.0008 16.5002 15.0008C16.5002 15.0008 16.5002 15.0007 16.5002 15.0007C16.5002 15.0007 16.5002 15.0006 16.5002 15.0006C16.5002 15.0006 16.5002 15.0006 16.5002 15.0005C16.5002 15.0005 16.5002 15.0005 16.5002 15.0005C16.5002 15.0005 16.5002 15.0004 16.5002 15.0004C16.5002 15.0004 16.5002 15.0004 16.5002 15.0004C16.5002 15.0003 16.5002 15.0003 16.5002 15.0003C16.5002 15.0003 16.5002 15.0003 16.5002 15.0003C16.5002 15.0002 16.5002 15.0002 16.5002 15.0002C16.5002 15.0002 16.5002 15.0002 16.5002 15.0002C16.5002 15.0002 16.5002 15.0002 16.5002 15.0001C16.5002 15.0001 16.5002 15.0001 16.5002 15.0001C16.5002 15.0001 16.5002 15.0001 16.5002 15.0001C16.5002 15.0001 16.5002 15.0001 16.5002 15.0001C16.5002 15.0001 16.5002 15.0001 16.5002 15.0001C16.5002 15 16.5002 15 16.5002 15C16.5002 15 16.5002 15 16.5002 15C16.5002 15 16.5002 15 16.5002 15C16.5002 15 16.5002 15 16.5002 15C16.5002 15 16.5002 15 16.5002 15C16.5002 15 16.5002 15 16.5002 15C16.5002 15 16.5002 15 16.5002 15C16.5002 15 16.5002 15 16.5002 15C16.5002 15 16.5002 15 16.5002 15C16.5002 15 15.0002 15 15.0002 15ZM15.0002 15H16.5002V8.14282H15.0002H13.5002V15H15.0002Z" fill="white"/>
</svg>
