<svg width="15" height="15" viewBox="0 0 15 15" fill="none" xmlns="http://www.w3.org/2000/svg">
<path d="M5.21777 0.125068C8.25149 -0.4787 11.2895 1.14541 12.4736 4.003L12.5791 4.27155C13.4259 6.60075 12.8584 9.17418 11.2021 10.9307L13.9658 13.6944L14.0176 13.752C14.2574 14.0466 14.2403 14.4805 13.9658 14.755C13.6913 15.0292 13.2574 15.0466 12.9629 14.8067L12.9053 14.755L10.0488 11.8985C7.56186 13.5364 4.28988 13.2662 2.1084 11.2696L1.89941 11.0704C0.759189 9.93055 0.0873795 8.40937 0.00781253 6.80671L2.8511e-08 6.48542C-0.00028816 3.39231 2.1842 0.729055 5.21777 0.125068ZM11.0879 4.57624C10.1775 2.38011 7.84241 1.13273 5.51074 1.59675C3.17895 2.06103 1.49975 4.10786 1.5 6.48542L1.50586 6.73249C1.56706 7.96416 2.08373 9.13283 2.95996 10.0089L3.12012 10.1622C4.80521 11.7049 7.3377 11.9079 9.25293 10.628L9.43555 10.501C11.2174 9.19266 11.9244 6.86083 11.1689 4.78327L11.0879 4.57624Z" fill="#828C94"/>
</svg>
