<svg width="22" height="23" viewBox="0 0 22 23" fill="none" xmlns="http://www.w3.org/2000/svg">
<path fill-rule="evenodd" clip-rule="evenodd" d="M6.80156 20.1852C6.80542 20.6887 6.50508 21.1448 6.04099 21.3402C5.57689 21.5355 5.04078 21.4316 4.68336 21.0769C4.32593 20.7222 4.21785 20.1869 4.40964 19.7213C4.60143 19.2558 5.0552 18.9519 5.55874 18.9519C6.24235 18.9497 6.79856 19.5016 6.80156 20.1852V20.1852Z" stroke="#2F3438" stroke-width="1.5" stroke-linecap="round" stroke-linejoin="round"/>
<path fill-rule="evenodd" clip-rule="evenodd" d="M14.2571 20.1852C14.261 20.6887 13.9606 21.1448 13.4966 21.3402C13.0325 21.5355 12.4963 21.4316 12.1389 21.0769C11.7815 20.7222 11.6734 20.1869 11.8652 19.7213C12.057 19.2558 12.5108 18.9519 13.0143 18.9519C13.6979 18.9497 14.2541 19.5016 14.2571 20.1852V20.1852Z" stroke="#2F3438" stroke-width="1.5" stroke-linecap="round" stroke-linejoin="round"/>
<path d="M3.72248 4.90528V4.15528C3.30827 4.15528 2.97248 4.49107 2.97248 4.90528H3.72248ZM20.9858 6.10317L21.7297 6.00756C21.7282 5.99568 21.7264 5.98384 21.7243 5.97205L20.9858 6.10317ZM20.8783 6.97436L20.18 6.70073C20.1757 6.71167 20.1717 6.72271 20.1679 6.73384L20.8783 6.97436ZM19.9976 9.57568L20.6932 9.85599C20.6985 9.84287 20.7034 9.8296 20.708 9.81619L19.9976 9.57568ZM18.4008 13.5382L19.0706 13.8757C19.08 13.857 19.0886 13.838 19.0965 13.8185L18.4008 13.5382ZM7.03712 16.4159V15.6659L7.03402 15.6659L7.03712 16.4159ZM4.69847 15.4582L4.17022 15.9906H4.17022L4.69847 15.4582ZM3.72248 13.1271H2.97247L2.97248 13.1299L3.72248 13.1271ZM2.9725 4.90539C2.9725 5.31961 3.30828 5.65539 3.7225 5.65539C4.13671 5.65539 4.4725 5.31961 4.4725 4.90539H2.9725ZM3.7225 1.81675H4.47253L4.47246 1.80934L3.7225 1.81675ZM2.8935 1.00001V1.75002L2.89725 1.75L2.8935 1.00001ZM1 0.250011C0.585786 0.250011 0.25 0.585797 0.25 1.00001C0.25 1.41422 0.585786 1.75001 1 1.75001V0.250011ZM3.72248 4.90528V5.65528H17.7066V4.90528V4.15528H3.72248V4.90528ZM17.7066 4.90528V5.65528C18.6096 5.65528 19.2405 5.62702 19.715 5.7352C19.9286 5.7839 20.0378 5.84763 20.0976 5.90306C20.1476 5.94942 20.2119 6.03422 20.2474 6.23428L20.9858 6.10317L21.7243 5.97205C21.6414 5.50511 21.4447 5.10667 21.1177 4.80336C20.8005 4.50912 20.4169 4.35676 20.0484 4.27274C19.3587 4.11548 18.4683 4.15528 17.7066 4.15528V4.90528ZM20.9858 6.10317L20.242 6.19877C20.2638 6.36864 20.2425 6.54127 20.18 6.70073L20.8783 6.97436L21.5766 7.24798C21.731 6.85393 21.7837 6.42733 21.7297 6.00756L20.9858 6.10317ZM20.8783 6.97436L20.1679 6.73384L19.2872 9.33516L19.9976 9.57568L20.708 9.81619L21.5887 7.21487L20.8783 6.97436ZM19.9976 9.57568L19.3019 9.29536L17.7052 13.2579L18.4008 13.5382L19.0965 13.8185L20.6932 9.85599L19.9976 9.57568ZM18.4008 13.5382L17.731 13.2007C17.4175 13.823 17.1806 14.2883 16.9691 14.6491C16.7571 15.0107 16.5972 15.2197 16.4548 15.3514C16.2295 15.5598 15.9629 15.6659 15.0862 15.6659V16.4159V17.1659C16.0403 17.1659 16.8096 17.0665 17.4733 16.4526C17.7753 16.1733 18.0231 15.817 18.2631 15.4078C18.5035 14.9978 18.7627 14.4868 19.0706 13.8757L18.4008 13.5382ZM15.0862 16.4159V15.6659H7.03712V16.4159V17.1659H15.0862V16.4159ZM7.03712 16.4159L7.03402 15.6659C6.35726 15.6687 5.70713 15.4024 5.22671 14.9258L4.69847 15.4582L4.17022 15.9906C4.93312 16.7475 5.96553 17.1703 7.04022 17.1659L7.03712 16.4159ZM4.69847 15.4582L5.22671 14.9258C4.7463 14.4491 4.47498 13.8011 4.47247 13.1244L3.72248 13.1271L2.97248 13.1299C2.97646 14.2046 3.40732 15.2337 4.17022 15.9906L4.69847 15.4582ZM3.72248 13.1271H4.47248V4.90528H3.72248H2.97248V13.1271H3.72248ZM3.7225 4.90539H4.4725V1.81675H3.7225H2.9725V4.90539H3.7225ZM3.7225 1.81675L4.47246 1.80934C4.46389 0.942578 3.75653 0.245687 2.88975 0.25002L2.8935 1.00001L2.89725 1.75C2.93849 1.74979 2.97213 1.78295 2.97253 1.82417L3.7225 1.81675ZM2.8935 1.00001V0.250011H1V1.00001V1.75001H2.8935V1.00001Z" fill="#2F3438"/>
</svg>
